<?xml version="1.0" encoding="UTF-8"?>
<svg id="Calque_2" xmlns="http://www.w3.org/2000/svg" viewBox="0 0 461.86 467.1">
  <defs>
    <style>
      .cls-1 {
        fill: #fff;
      }

      .cls-2 {
        fill: #ff3762;
      }

      .cls-3 {
        fill: #ffd500;
      }
    </style>
  </defs>
  <g id="Calque_1-2" data-name="Calque_1">
    <g>
      <polygon class="cls-2" points="149.33 0 0 0 27.11 304.44 149.33 339.56 271.56 304.44 298.67 0 149.33 0"/>
      <polygon class="cls-1" points="67.67 196.36 105.5 196.36 108 225.86 149.33 236.86 191 226.03 195.33 177.19 66.33 177.19 55.67 64.03 243 64.03 239.5 102.03 97.33 102.03 100.67 140.36 236.5 140.36 225.67 254.69 149.33 275.53 72.67 254.86 67.67 196.36"/>
      <polygon class="cls-3" points="312.53 127.54 163.19 127.54 190.31 431.99 312.53 467.1 434.75 431.99 461.86 127.54 312.53 127.54"/>
      <polygon points="222.64 228.99 218.86 191.88 406.19 191.88 389.53 381.88 312.53 402.76 236.64 381.43 231.31 322.32 268.64 322.32 271.53 351.88 312.53 363.65 355.08 352.1 358.64 305.21 272.42 305.21 268.64 267.21 361.97 267.21 365.08 229.21 229.08 229.21 222.64 228.99"/>
    </g>
  </g>
</svg>