<?xml version="1.0" encoding="UTF-8"?>
<svg id="Calque_2" xmlns="http://www.w3.org/2000/svg" viewBox="0 0 634.08 232.45">
  <defs>
    <style>
      .cls-1 {
        fill: #fff;
      }
    </style>
  </defs>
  <g id="Calque_1-2" data-name="Calque_1">
    <g>
      <path class="cls-1" d="M219.71,165.92c-.2.36-.34.72-.42,1.08.24-.52.38-.88.42-1.08Z"/>
      <path class="cls-1" d="M223.19,166.76c-.06.78-.54,1.94-1.43,3.46.97-1.59,1.92-3.19,2.87-4.78-.44.52-.92.96-1.44,1.32Z"/>
      <path class="cls-1" d="M220.55,172.16c-.56.84-1.04,1.64-1.44,2.4.65-1.05,1.29-2.1,1.92-3.15-.16.24-.31.49-.48.75Z"/>
      <path class="cls-1" d="M227.21,161.18l1.2-1.86-1.5,1.68s.1.06.18.06.12.04.12.12Z"/>
      <path class="cls-1" d="M235.31,147.45l1.14-2.28-1.08,1.92s-.06.16-.06.36Z"/>
      <path class="cls-1" d="M241.31,132.33l.54.12-.24-.36c-.08.12-.18.2-.3.24Z"/>
      <polygon class="cls-1" points="240.05 132.21 239.27 131.85 239.33 132.15 240.05 132.21"/>
      <polygon class="cls-1" points="245.27 132.39 244.61 132.33 244.43 132.45 245.27 132.39"/>
      <path class="cls-1" d="M215.76,179.66c-.72.88-1.44,1.68-2.16,2.4-.04.04-.06.11-.06.21s-.01.22-.03.36c-.02.14-.07.27-.15.39l-1.26,1.92c1.64-2.24,3.18-4.46,4.62-6.66-.19.15-.41.29-.64.41.66-1.01,1.41-2.25,2.26-3.71,0-.2.42-.96,1.26-2.28,1.84-3.32,2.76-5.14,2.76-5.46,0-.12-.06-.18-.18-.18-.44.04-1.22.46-2.34,1.26,4.52-8.32,7.82-15.08,9.9-20.28l1.44-3.3c-.12.12-.22.26-.3.42-2.36,5.04-4.92,10.12-7.68,15.24-.04-.2-.12-.4-.24-.6,2.28-3.88,3.42-5.98,3.42-6.3.24-.56.5-.98.78-1.26l.42-1.08c2.2-4.2,4.24-8.38,6.12-12.54.32-.8.66-1.58,1.02-2.34l.06-.24c-.16.24-.54,1.02-1.14,2.34v.12l-.3.54c-1.2,2.52-3.04,6.18-5.52,10.98v-.24l6.42-13.2h-.06c-1.16,2.36-1.96,3.82-2.4,4.38l4.26-8.64,1.68-.12c-.24-.08-.46-.26-.66-.54-.24.36-.58.56-1.02.6l.36-.78c-.08,0-.26.28-.54.84l-2.16,4.08c.12-.48.28-.96.48-1.44.76-1.28,1.14-2.1,1.14-2.46l-.06-.06c-.32.32-.62.74-.9,1.26l.24-.6-.42.9-.24-.06.18-.36v.06l.54-1.2,1.2-.12-.72.06c.32-.28.56-.56.72-.84l.84-.24s.06-.12.06-.24-.14-.38-.42-.78l.06-.78c2.6-.52,5.3-1.18,8.1-1.98.04,0,.06-.02.06-.06l-5.94.84.06-.48c1.64,0,2.52-.08,2.64-.24.16,0,.26.02.3.06.16-.04.3-.1.42-.18,3.24-.28,4.86-.5,4.86-.66l.84-.12s-.04-.06-.12-.06l-.72.12-.06.06-.06-.06-.18.06c-1.36.04-2.76.14-4.2.3l.06-.12c1.2-.12,1.98-.22,2.34-.3,1.2-.16,2.12-.24,2.76-.24l-.06-.06c-.48,0-.92.02-1.32.06l-.36-.18c2.36-.08,3.58-.16,3.66-.24l-.06-.06-1.86-.12.18-.18c.8,0,1.22-.06,1.26-.18,0-.16-.14-.24-.42-.24l.12-.06h-.06s-.02-.06-.06-.06v.06h-.18c0-.08-.02-.14-.06-.18h.66v.3c.16.24.32.36.48.36.2,0,.46-.22.78-.66l1.38.06s-.44-.08-1.32-.12c.44-.6.82-.9,1.14-.9l.24.06c.12-.36.18-.68.18-.96,0-.24-.04-.47-.12-.69-.08-.22-.17-.43-.27-.63-.1-.2-.17-.4-.21-.6l.06.42c-.12.32-.24.48-.36.48-.16,0-.24-.08-.24-.24s.04-.32.12-.48l-.06-.3c-.2-.16-.38-.24-.54-.24-.2,0-.42.18-.66.54-.12.16-.28.3-.48.42-.68-.2-1.18-.3-1.5-.3l-1.38.06-.6-.84v.84l-1.2.12c-.2,0-.41-.1-.63-.3-.22-.2-.41-.3-.57-.3-.2,0-.4.1-.6.3,2,.44,3.46.72,4.38.84l-.54.54-2.64.24c0-.48.04-.88.12-1.2-.16-.08-.3-.12-.42-.12-.2,0-.4.16-.6.48-.08.2-.2.36-.36.48-.48,0-.76-.14-.84-.42-.16.36-.3.54-.42.54-.16,0-.36-.1-.6-.3.64-.16,1.28-.38,1.92-.66-1.32,0-2.58-.1-3.78-.3.24,0,.48-.04.72-.12-.8,0-1.64.04-2.52.12l-1.8.06c-1.4,0-2.86-.1-4.38-.3.2-.28.42-.42.66-.42.2.08.4.19.6.33.2.14.42.21.66.21,1.16-.28,2.64-.52,4.44-.72l-1.74.24,1.02-.06c.48,0,.96.04,1.44.12-.08.08-.24.16-.48.24-.24.08-.38.18-.42.3,1.16-.08,2.3-.36,3.42-.84.48-.16.72-.4.72-.72,0-.56-.26-.84-.78-.84-.8.04-1.8.06-3,.06-1.96,0-3.66.22-5.1.66-1.52.8-2.72,1.3-3.6,1.5-1.04,0-1.74.12-2.1.36l-2.04,1.74h-.3l-.06.3c-.96.76-1.96,1.42-3,1.98-.4,0-1.1.14-2.1.42l-.3-.06c-.24,0-.42.1-.54.3l-.78.18.12.12h-.66l.24.06-2.34.36-.42-.24c-.36.2-.71.34-1.05.42-.34.08-.65.2-.93.36-.56.04-1.2.14-1.92.3l.54-.06c-.12,0-.36.08-.72.24l.12.06c-.6.12-1.18.36-1.74.72-.16.04-.3.15-.42.33-.12.18-.2.29-.24.33-.04,0-.06-.02-.06-.06h-.72l.72.12c0,.24.08.38.24.42,0,.28-.08.56-.24.84l.48.6-.06.12h.12v.06h.12c.24.28.48.44.72.48,0,.16.06.3.18.42.32.4.74.6,1.26.6.08.24.34.36.78.36v.12c.2.08.44.14.72.18-1.12.4-1.78.68-1.98.84l.66.36c1.12,0,1.81-.07,2.07-.21.26-.14.49-.21.69-.21.16,0,.38.06.66.18.08-.04.12-.1.12-.18s.04-.12.12-.12c.24,0,.37.06.39.18.02.12.29.18.81.18.48,0,1.02-.12,1.62-.36l2.4-.3c.2-.12.42-.2.66-.24.08-.04.12-.12.12-.24s.04-.2.12-.24c.08.12.44.2,1.08.24l.24-.3.3.24,1.38-.3v-.06c.32-.12.67-.2,1.05-.24.38-.04.75-.14,1.11-.3l.6.06-.12-.42c-.04.08-.12.12-.24.12.12-.08.2-.2.24-.36.24.24.5.38.78.42l1.56-.18c0-.2-.02-.3-.06-.3l.78.24c.44-.04.9-.06,1.38-.06l.06-.06-.24.54c.12-.28.26-.54.42-.78l.06.12-.48.66-.42.06h.48c-.28.48-.72,1.32-1.32,2.52l1.2-2.52-2.46,4.92-1.5,1.02.78.36-1.44,3c-.28.48-.61.9-.99,1.26-.38.36-.73.76-1.05,1.2-.32.44-.52,1.04-.6,1.8,2.2-3.32,4.32-6.74,6.36-10.26l-.12,1.5-3.24,6.6c-.4,0-.72-.3-.96-.9-.64.8-.96,1.68-.96,2.64,0,.68-.18,1.33-.54,1.95-.36.62-.7.93-1.02.93,0,.6-.04,1.04-.12,1.32-.08.28-.48.74-1.2,1.38.8-1.68,1.52-3.36,2.16-5.04-1.64,3-3.46,5.92-5.46,8.76.32-.48.62-1.04.9-1.68l-3.36,5.88c-2.88,4.8-5.98,9.3-9.3,13.5.2-1.08.82-2.02,1.86-2.82.4-.32.74-.7,1.02-1.14l5.94-10.5-2.16,4.02c1.04-1.88,2.2-3.7,3.48-5.46-.08.36-.24.76-.48,1.2-.24.44-.36.84-.36,1.2,1.56-2.68,2.9-5.48,4.02-8.4.36-.84.54-1.44.54-1.8,0-.28-.12-.42-.36-.42-.6,0-1.1.44-1.5,1.32-1.72,3.2-3.5,6.24-5.34,9.12-1.96,3.08-3.78,6.2-5.46,9.36-1.32,3.08-2.86,6.06-4.62,8.94-1.72,2.24-2.76,3.72-3.12,4.44-1.44,3.36-2.52,5.36-3.24,6v.42c-1.12,1.92-2.28,3.54-3.48,4.86-.92.96-1.5,1.44-1.74,1.44-.3.15-.6.22-.91.23l-.11-.11c-.4-.16-.7-.34-.9-.54-.24-.48-.56-.82-.96-1.02-.28-.44-.52-.9-.72-1.38v.18c-.12-.36-.22-.78-.3-1.26v.48c-.24-1.44-.36-2.32-.36-2.64,0-.84.04-1.76.12-2.76l.42-.72c0-1.36.2-3.08.6-5.16l1.32-4.44-.42,1.14c.12-.32.3-.92.54-1.8l-.12.18c.84-2.56,1.42-4.76,1.74-6.6.28-.4.58-.76.9-1.08-.32.24-.62.54-.9.9,0-.24-.04-.36-.12-.36s-.2.1-.36.3c-.08-.32-.12-.8-.12-1.44-.24-.08-.5-.12-.78-.12l.06-.18h-.12c0,.08-.03.13-.09.15-.06.02-.11.05-.15.09-.4.04-.76.3-1.08.78,0-.2-.12-.3-.36-.3-.56.08-1.16.74-1.8,1.98-.04,0-.07-.02-.09-.06-.02-.04-.07-.08-.15-.12-.16.12-.46.64-.9,1.56l-.06-.24c-.32.4-.64.94-.96,1.62.32-1.12.69-2.21,1.11-3.27s.77-2.07,1.05-3.03c-.88.96-1.4,1.66-1.56,2.1-1.2,2.56-1.9,4.34-2.1,5.34-.2,1-.6,1.96-1.2,2.88-.08.28-.12.59-.12.93s-.14.79-.42,1.35c-.28.08-.62.94-1.02,2.58-.44,1.8-.66,4.22-.66,7.26,0,2.36.36,4.58,1.08,6.66.88,2.08,1.78,3.34,2.7,3.78.8,1.32,2,2.48,3.6,3.48l.96.18s.02.06.06.06.08.02.12.06c.32.08.58.12.78.12.52.24,1.08.4,1.68.48,4.2-.08,8.4-2.68,12.6-7.8.48-.4.94-.84,1.38-1.32-.12,0-.26-.04-.42-.12-.04.2-.16.38-.36.54.2-.36.36-.7.48-1.02.56-.24,1.12-.6,1.68-1.08l3.18-4.02c0-.08-.08-.16-.24-.24l1.62-1.56,2.52-3.3c.12-.28.22-.58.3-.9.56-.19,1.52-1.32,2.87-3.39-.04.23-.09.42-.14.57-.06.16-.11.28-.15.36ZM248.03,124.05c.16,0,.26.08.3.24l.48-.3h.12l.06.9h-.72c0-.12-.04-.23-.12-.33-.08-.1-.12-.21-.12-.33v-.18ZM246.17,125.79h-.9c.24-.08.54-.12.9-.12v.12ZM245.27,125.19l-.18-.12,1.56-.06-.12.18h-1.26ZM247.31,125.67l-.06.18h-.6l.12-.18h.54ZM246.77,124.89l-1.68.12-.12-.12h1.8ZM245.93,123.33c-.28.24-.58.36-.9.36h-.18l.36.3-.96-.06-.24-.48,1.92-.12ZM242.69,125.01l.66-.06.12.18-.78.06v-.18ZM242.63,126.45l2.34-.12,1.08.12-3.54.48c.08-.16.12-.32.12-.48ZM215.94,127.59l-.3.12-.18-.12.6-.12.3.06-.42.06ZM232.31,140.31l-4.5,9.3c-.04-.24-.1-.42-.18-.54,2.04-3.96,3.6-6.88,4.68-8.76ZM229.79,142.11l2.04-4.02-.06.54-1.86,3.48h-.12ZM230.63,142.05l1.08-2.22.18-.12-1.26,2.34ZM232.55,138.51v-.36l.72-1.38.06.24-.78,1.5ZM234.23,132.45h.36l-.78,1.56c-.16.04-.34.13-.54.27-.2.14-.32.21-.36.21-.08,0-.14-.06-.18-.18l.3-.6h.3c.2-.96.34-1.48.42-1.56l.9.18-.42.12ZM234.71,132.39v-.06l.24.06h-.24ZM235.61,124.35l-.42.06.12-.18-.06-.06.66-.06-.3.24ZM236.45,128.61h-.06v-.36l.3.06c-.12.2-.2.3-.24.3ZM240.65,127.11h-.3l.3-.18v.18ZM241.31,125.19l-.18-.12h.24l-.06.12ZM241.49,123.69l.06.12c-.68,0-1.58.06-2.7.18l-1.02.18v-.18l3.66-.3ZM240.29,122.55c-.2.16-.34.34-.42.54l.06.36-2.1.18-.06-.36c1.4-.08,2.1-.14,2.1-.18l-2.1.06-.18-.24c.92-.08,1.82-.2,2.7-.36ZM237.17,128.49l-.54.06.12-.24.42.18ZM227.27,124.35c.36-.04.74-.13,1.14-.27.4-.14.82-.21,1.26-.21.24,0,.48.04.72.12-.04.12-1.08.24-3.12.36ZM228.95,124.59l2.22-.42,3.84-.3c-.28-.2-.56-.3-.84-.3-.14,0-.27.01-.41.03.02,0,.04-.02.05-.03,0-.04-.01-.07-.03-.09-.02-.02-.05-.03-.09-.03l-1.74.3-.18-.06c1.92-.48,3.68-.72,5.28-.72l-.24.24-2.64.18-.12.06.12.06,2.58-.18-.48.48-7.32.78ZM231.83,137.85l-2.16,4.32-.24.18,2.4-4.5ZM229.37,139.29c-.2.92-.58,1.86-1.14,2.82l.78-.78-1.32,2.28c-.28.2-.54.36-.78.48l2.46-4.8ZM227.27,146.49l.36-.24-1.02,1.98-.12-.18.78-1.56ZM224.81,155.01l.36-.66.12.06-.48.84v-.24ZM224.69,151.35l.06.24-.36.42.3-.66ZM224.51,155.85c0,.12-.04.18-.12.18l.12-.18ZM186.72,189.02l-.12-1.86.12-.18.06,1.38-.06.66ZM190.5,195.14h-.06l.06-.12v.12ZM219.95,166.16l-1.2,1.98.06-.84.9-1.62v.24c.36-.6.82-1.2,1.38-1.8l-1.14,2.04ZM223.67,150.33l.18-.06-4.98,9.18-.12-.12c1.72-3.04,3.36-6.04,4.92-9ZM221.27,153.99c-.88,1.68-1.8,3.38-2.76,5.1-.12-.12-.26-.18-.42-.18,1.92-3.2,2.9-4.88,2.94-5.04.04.08.12.12.24.12ZM221.09,152.49c-.08.36-.12.66-.12.9,0,.16.02.3.06.42l-.18.18c-.92,1.68-1.86,3.32-2.82,4.92l-.42.12c1.28-2.16,2.44-4.34,3.48-6.54ZM202.38,183.26c.72-.92,1.4-1.9,2.04-2.94.92-1.44,1.92-2.8,3-4.08l-.06.24c-1.56,2.32-3.22,4.58-4.98,6.78ZM205.32,180.08c4.2-6.32,7.24-11.06,9.12-14.22-.92.88-1.76,2.06-2.52,3.54l-.96,1.62c1.04-1.76,1.56-2.68,1.56-2.76-.12.04-.26.22-.42.54-1.48,2.48-2.38,3.9-2.7,4.26l7.5-12.72-.12.78-4.02,6.54c.24-.2,1.54-2.3,3.9-6.3-.08.48-.18.94-.3,1.38-3.96,6.76-7.64,12.54-11.04,17.34ZM215.76,164.78l-.66,1.08.12-.36-.12-.06,1.02-1.62-.36.96Z"/>
      <path class="cls-1" d="M230.51,155.91l.9-1.38-.66.42c-.04.32-.12.64-.24.96Z"/>
      <path class="cls-1" d="M221.21,180.2l.42-.12-.06-.48c.36-.4.74-.74,1.14-1.02-.16-.12-.24-.28-.24-.48.2-.28.36-.56.48-.84-.64.96-1.22,1.94-1.74,2.94Z"/>
      <path class="cls-1" d="M258.11,175.7l-.06.48.54-.54c-.08.04-.18.06-.3.06h-.18Z"/>
      <path class="cls-1" d="M244.31,163.16c-.2-.2-.42-.3-.66-.3l.06.06c.28.04.48.12.6.24Z"/>
      <path class="cls-1" d="M261.04,172.58v.18l.72-.96c-.48.44-.72.7-.72.78Z"/>
      <path class="cls-1" d="M252.95,165.86h0s-.01,0-.02.01c0,0,.01,0,.02-.01Z"/>
      <path class="cls-1" d="M251.15,205.57c.72-.04,1.44-.16,2.16-.36-.56.08-1.14.14-1.74.18-.08,0-.22.06-.42.18Z"/>
      <path class="cls-1" d="M251.42,166.61c-.22.18-.33.49-.33.93.7-.63,1.3-1.18,1.84-1.67-.24.19-.49.32-.76.38-.28.06-.53.18-.75.36Z"/>
      <polygon class="cls-1" points="222.65 186.26 222.59 186.56 222.65 186.74 222.71 186.5 222.65 186.26"/>
      <path class="cls-1" d="M263.14,167.78c.24-.28.44-.56.6-.84.4-.34.83-.76,1.25-1.23.05-.03.11-.1.19-.21.06-.06.11-.12.17-.19l-.14.14c.07-.1.16-.22.26-.38h-.12c.52-.48.94-.98,1.26-1.5.12-.04.18-.2.18-.48l-.12-.12c.24,0,.42.06.54.18-.12-.2-.32-.3-.6-.3-.2-.32-.3-.6-.3-.84-.52-.8-1-1.2-1.44-1.2,0-.16-.09-.31-.27-.45-.18-.14-.39-.21-.63-.21-.28,0-.6.1-.96.3l-.12-.24c-.16,0-.46.16-.9.48v-.24l.06-.06s-.02-.06-.06-.06c-.16.16-.46.34-.9.54,1.04-1.2,1.86-2,2.46-2.4-.76,0-1.28.1-1.56.3-.28.2-.54.4-.78.6-.28-.44-.62-.72-1.02-.84-.72-.12-1.2-.22-1.44-.3l.42.18c.04.16.06.38.06.66-.04.16-.18.24-.42.24-.12,0-.21-.11-.27-.33-.06-.22-.17-.33-.33-.33-.64.28-.96.78-.96,1.5,0,.28-.04.52-.12.72-.4.32-1.04.96-1.92,1.92l1.44-1.8-2.34,2.82-1.14.12.66.54-.89,1.37c1.34-1.22,2.2-2.02,2.57-2.39v.9l-2.28,2.88c-.28-.12-.52-.4-.72-.84-.4.24-.6.56-.6.96l.06,1.08s-.24.18-.6.54l-.18.06c-.12,0-.22-.02-.3-.06l.06.48c0,.24-.07.4-.21.48-.14.08-.35.18-.63.3.44-.8.86-1.62,1.26-2.46-.56.84-1.76,2.06-3.6,3.66.24-.24.44-.52.6-.84-.63.8-1.23,1.54-1.82,2.25.81-1.08,1.5-2.24,2.06-3.51.16-.36.24-.66.24-.9,0-.4-.22-.6-.66-.6-.32,0-.58.14-.78.42-.92,1.2-1.86,2.32-2.82,3.36-1.44,1.56-2.7,3.24-3.78,5.04-.64,1.6-1.4,3.1-2.28,4.5-.96.96-1.54,1.68-1.74,2.16-.24,1.08-.54,2.16-.9,3.24-.12.04-.2.12-.24.24l.06.24c-.48,1.52-1.1,2.96-1.86,4.32-.28.24-.92.86-1.92,1.86-.44.16-.68.4-.72.72l-.72.66h.18l-.18.12c-.44-.4-.72-.72-.84-.96l.18.36v.48l-.12.18c-.2,0-.3-.06-.3-.18v-.54c-.08-.2-.26-.3-.54-.3-.12,0-.24.14-.36.42,0,.12-.08.32-.24.6l-.36-.06s.06-.02.06-.06-.12-.08-.36-.12l-.06.12c-.12-.12-.2-.24-.24-.36,0-.76.22-1.6.66-2.52-.04.12-.06.34-.06.66.12-.53.24-1.03.37-1.49-.05.3-.07.59-.07.89,0,1.04.18,1.66.54,1.86.16.04.36.06.6.06.48-.04.72-.14.72-.3,0-.64.14-1.32.42-2.04.76-1.96,1.26-3.42,1.5-4.38.12-1.28.42-2.56.9-3.84.68-.96,1.06-1.62,1.14-1.98,0-.96.04-1.92.12-2.88l.24-.18-.18-.3c.16-1.32.46-2.64.9-3.96.48-.56.94-1.18,1.38-1.86.36-.2.54-.46.54-.78l.48-.72h-.12l.48-.48-.24.12c.24-.2.48-.48.72-.84.36-.32.72-.7,1.08-1.14l.54-.06c.12-.24.54-.86,1.26-1.86.48-.4.96-.84,1.44-1.32l-.42.3s.02-.06.06-.06c.16-.12.32-.3.48-.54l-.12.06c.52-.52.88-.94,1.08-1.26.08-.04.12-.12.12-.24-.12-.12-.18-.2-.18-.24s-.02-.08-.06-.12c-.2-.36-.3-.64-.3-.84-.6-.84-1.06-1.26-1.38-1.26,0-.12-.1-.26-.3-.42-.2-.16-.44-.24-.72-.24-.24,0-.5.06-.78.18,0-.08-.06-.14-.18-.18-.08,0-.32.1-.72.3l-.06-.18c-.28.08-.56.2-.84.36.36-.44.76-.84,1.2-1.2,0-.04.02-.06.06-.06.4-.4.74-.68,1.02-.84l-.9-.06c-.2,0-.42.08-.66.24-1.24.88-1.92,1.42-2.04,1.62-.32.52-.72.8-1.2.84-.08.04-.12.14-.12.3s-.16.32-.48.48l-.12-.06c-.6,0-1.34.68-2.22,2.04-.72.76-1.4,1.54-2.04,2.34-.12.28-.28.54-.48.78,0,.2.04.38.12.54-.4.24-.8.52-1.2.84.04,0,.06.02.06.06l-.06.12v.3l-.42.06-.96,1.56c-.16.36-.36.7-.6,1.02-.36.48-.64.94-.84,1.38l-.54.6c.16.04.3.1.42.18l.06-.36c0,.24.02.42.06.54-.36.08-.66.22-.9.42l-1.14,1.74c.12.12.22.18.3.18-.52.4-1.12,1.06-1.8,1.98v.54c-.16,0-.3.02-.42.06-.64.8-1.22,1.82-1.74,3.06l.12.3c-.44.76-.82,1.82-1.14,3.18l.18-.48-.18.96c.04.16.14.24.3.24.12,0,.66-.16,1.62-.48-.72,2.88-1.08,5.04-1.08,6.48,0,1,.16,2.06.48,3.18-.04.2-.06.42-.06.66,0,1.64.5,2.88,1.5,3.72.44.32.8.78,1.08,1.38.24.12.43.18.57.18s.47.18.99.54c0,.36.58.7,1.74,1.02.52.16,1.08.24,1.68.24,2.4,0,4.44-.54,6.12-1.62l1.14-.84s.23-.17.57-.51c.34-.34.51-.69.51-1.05.48-.24.98-.54,1.5-.9l.18-.48.42-.12,1.5-1.62-.06-.06c.28-.36.6-.72.96-1.08.48-.48.88-.98,1.2-1.5l.42-.36c0,3.6,1.04,6.06,3.12,7.38,1,.64,2.12.96,3.36.96s2.4-.26,3.6-.78l.06-.06h-.12c-.72.36-1.72.54-3,.54-1.64,0-3.08-.58-4.32-1.74-.72-.8-1.24-1.74-1.56-2.82.36,0,.54.02.54.06.44,1.8,1.2,2.92,2.28,3.36.2,0,.48.14.84.42.8.2,1.44.32,1.92.36,2.2,0,4.32-.6,6.36-1.8.08-.04.12-.1.12-.18.04,0,.38-.2,1.02-.6l-1.38.72c-2.08,1.04-4.14,1.56-6.18,1.56l-.48-.12.3-.06c.08.04.3.06.66.06,2-.04,4.24-.8,6.72-2.28h-.18c-.92.52-1.66.82-2.22.9,0-.04.02-.06.06-.06,1.52-.64,2.94-1.4,4.26-2.28.12-.04.18-.12.18-.24l-2.4,1.14c.08-.04.13-.1.15-.18.02-.08.13-.16.33-.24.76-.4,1.14-.68,1.14-.84,0-.04-.02-.06-.06-.06-.16,0-.4.08-.72.24l.3-.24-.42.24-.18-.18.18-.12v.06l.24-.12v-.06l.36-.18.18.3.42.06c.4,0,.68-.4.84-1.2,1.04-.68,1.56-1.04,1.56-1.08h-.12l-1.38.96c0-.88.32-1.44.96-1.68-.2-.68-.53-1.13-.99-1.35-.46-.22-.87-.45-1.23-.69l.36.3c0,.16.02.3.06.42,0,.2-.08.3-.24.3-.2,0-.32-.11-.36-.33-.04-.22-.14-.37-.3-.45-.56,0-.9.32-1.02.96-.04.24-.12.46-.24.66-.84.28-1.34.48-1.5.6l1.08-.66c-.56.36-1.42.8-2.58,1.32-.08,0-.14-.14-.18-.42l-.12-.24c-.08,0-.16.04-.24.12l-.06-.06c0,.12-.06.24-.18.36l.36.18.18.66c0-.12.07-.19.21-.21.14-.02.23-.11.27-.27l.48.06.42-.06-.36.9c-.68.32-1.36.6-2.04.84,0-.36.06-.78.18-1.26-.04-.08-.08-.12-.12-.12-.08,0-.19.12-.33.36-.14.24-.31.48-.51.72-.04-.08-.11-.12-.21-.12s-.15-.06-.15-.18l.12-.3c-.28.32-.48.48-.6.48-.04,0-.06-.24-.06-.72-.48,0-.86.18-1.14.54-.12-.2-.18-.76-.18-1.68.27-.16.49-.31.65-.47.15.91.65,1.37,1.51,1.37.4,0,.78-.1,1.14-.3-.8-.08-1.2-.48-1.2-1.2l.06-.36c0,.08.08.16.24.24-.2-.32-.3-.68-.3-1.08,0-.02,0-.05,0-.07.02.56.27.85.77.85.36,0,.64-.12.84-.36.6-.72.9-1.18.9-1.38s.06-.34.18-.42l-.18-.06.06-1.98s.06-.02.06-.06c0-.56.14-1.26.42-2.1.68-1.08,1.06-1.82,1.14-2.22.04-1.04.14-2.1.3-3.18l.24-.24-.18-.24c.12-.76.28-1.52.48-2.28l.42-.48-.36.18c.16-.64.36-1.28.6-1.92.52-.64,1.04-1.34,1.56-2.1.36-.28.54-.6.54-.96l.6-.84h-.18l.54-.54-.14.07,1.88-2.23.54-.12c.2-.44.48-.88.84-1.32ZM239.33,160.52l.06.3-.12-.3h.06ZM238.67,168.26c-.2.24-.44.46-.72.66.36-.44.6-.66.72-.66ZM221.57,194.18l-.24.48c-.08-.56-.12-1.12-.12-1.68,0-1.2.12-2.36.36-3.48l.48.24c-.4,1.24-.6,2.14-.6,2.7,0,.28.04.48.12.6,0,.32-.04.54-.12.66l.12.48ZM222.05,196.82c-.12-.36-.2-.74-.24-1.14l.24.72v.42ZM222.17,195.92l-.24-1.14.18.06.18,1.14-.12-.06ZM222.29,195.38l-.12-.42.24.06-.12.36ZM222.11,192.44l.06-.42.12.42h-.18ZM222.71,186.92l-.06-.18c-.12.32-.32.6-.6.84l.54-1.74.18.24.06-.18.06.24-.18.78ZM224.03,193.4h-.06l.06-.12v.12ZM231.08,186.11c-.38.18-.59.33-.63.45l-.42,1.56-.06-.06v.24c-.14.4-.27.77-.38,1.12l.08-.29c-.24.68-.56,1.36-.96,2.04-.04-.08-.06-.32-.06-.72-.03-.09-.08-.16-.14-.23.31-1.01.64-1.81.98-2.38.56-.94,1.26-1.89,2.1-2.85l.06.42c0,.28-.19.51-.57.69ZM231.59,180.02c-.24.36-.44.76-.6,1.2-.28.68-.7,1.28-1.26,1.8v-.06c.44-.88,1.06-1.86,1.86-2.94ZM226.73,187.1c0,.16.04.26.12.3l-.24.72c-.04-.12-.06-.26-.06-.42l.18-.6ZM225.41,193.64h-.06c.04-1.2.14-2.08.3-2.64l-.06.06.24-1.08.12.06c-.36,1.32-.54,2.42-.54,3.3v.3ZM226.19,192.38s-.1-.06-.18-.06h-.12c0-.44.12-1.14.36-2.1l.42.06c-.2.68-.36,1.34-.48,1.98v.12l.06-.12c.12-.64.28-1.3.48-1.98h.3c-.24.76-.36,1.5-.36,2.22v.3c-.08-.16-.22-.3-.42-.42l.24-.18-.3.18ZM226.91,194.36h-.18l-.24-.18c.04-.08.16-.12.36-.12-.36-.16-.54-.3-.54-.42s.14-.28.42-.48c.04.52.16.94.36,1.26-.04-.04-.1-.06-.18-.06ZM227.03,189.38l1.02-2.76c-.08,0-.44.88-1.08,2.64l-.24-.66c.88-2.56,2.04-5,3.48-7.32l-1.08,2.34c-.88,1.4-1.48,2.6-1.8,3.6.36-.2.64-.62.84-1.26l-.06.42s.32-.6.84-1.8l.18-.12c-.8,2-1.44,3.74-1.92,5.22l-.18-.3ZM241.61,177.86c.28-.08.5-.22.66-.42.6-.96,1.76-2.58,3.48-4.86l-1.32,1.8c.6-.84,1.34-1.62,2.22-2.34,0,.08-.08.26-.24.54-.16.28-.24.48-.24.6l.05.09c-2.18,2.59-4.08,4.54-5.68,5.85,0-.68.36-1.1,1.08-1.26ZM239.03,184.88c.36-.4.68-.82.96-1.26.48-.8,1.1-1.48,1.86-2.04l-1.02,1.38-1.8,1.92ZM243.05,192.44l-.12-.06c0,.12-.04.22-.12.3l.06-.6h.24l-.06.36ZM244.43,192.2s-.08-.04-.12-.12c0,.2-.06.44-.18.72-.12.28-.2.52-.24.72,0-.6.04-1.2.12-1.8l.24-.36c0,.32.02.56.06.72v-.66l.18.3-.06.48ZM246.23,198.14l-.24-.3.24.24v.06ZM246.83,198.8l-.36-.36.48.24-.12.12ZM246.95,176.78l-.42.42.06-.12s-.04-.08-.12-.12l.6-.72-.12.54ZM247.25,174.68l-2.4,2.94.06.06,2.34-2.88c0,.28-.04.56-.12.84-1.96,2.64-4.06,5.28-6.3,7.92l1.86-2.64c1.16-1.28,2.26-2.58,3.3-3.9-.36.12-.66.32-.9.6-.24.28-.45.56-.63.84-.18.28-.37.54-.57.78l.9-1.32h-.06c-.08,0-.16.08-.24.24-.92,1.24-1.44,1.88-1.56,1.92.92-1.44,2.36-3.38,4.32-5.82v.42ZM248.03,173.72l-.3-.06c.76-.96,1.46-1.96,2.1-3v.3c0,.2.02.38.06.54l.24.18c-.56.8-1.12,1.56-1.68,2.28l-.36-.24c1.2-1.44,1.8-2.18,1.8-2.22-.04,0-.66.74-1.86,2.22ZM248.63,191.6l-.12.6-.12-.36.06-.42c.04.12.08.18.12.18h.06ZM248.81,197.9l-.12-.24.24.12-.12.12ZM248.15,193.88h.18c0,.52.04.92.12,1.2.16.76.6,1.28,1.32,1.56-1-.24-1.54-1.16-1.62-2.76ZM253.79,198.32l1.08-.48.12.12-1.2.36ZM255.11,197.24l-1.32.48h-.36c.64-.24,1.26-.5,1.86-.78l-.18.3ZM253.67,197.78l-.24.06s.12-.06.24-.06ZM256.67,195.2l.18.18.36-.54.12-.06.54.72-.78.42c-.08-.08-.21-.15-.39-.21-.18-.06-.27-.17-.27-.33l.24-.18ZM256.31,197.18v.24l-.72.3c.04-.12.28-.3.72-.54ZM255.29,196.82c-.08.12-.72.4-1.92.84l-.12-.12c.68-.2,1.36-.44,2.04-.72ZM253.79,195.74c-.2.4-.48.62-.84.66l.42.24-.84.18c-.12-.16-.2-.32-.24-.48.48-.16.98-.36,1.5-.6ZM254.93,198.68c-1.8.84-3.4,1.26-4.8,1.26h-.6c.16-.12.3-.26.42-.42h.96c.96-.04,2.3-.32,4.02-.84ZM250.61,198.08l.78-.12.12.18c-.32.08-.62.12-.9.12h-.12l.12-.18ZM249.29,195.32l-.06.18c.24.32.56.54.96.66l-.06.06-.18-.06-.66-.54c-.36-.32-.58-.82-.66-1.5,0-.2.16-.36.48-.48v.66c0,.44.06.78.18,1.02ZM249.77,192.5c0,.22.02.41.05.6-.2-.04-.39-.12-.59-.24.12-.72.3-1.46.54-2.22v-.18s-.04.08-.12.12c-.2.8-.36,1.54-.48,2.22-.16-.08-.3-.18-.42-.3.16-1,.6-2.62,1.32-4.86.08-.16.12-.27.12-.33s.48-1.03,1.44-2.91c-1.44,3.16-2.24,5.28-2.4,6.36.28-.24.46-.48.54-.72v.24s.1-.1.18-.3c.32-1.28.54-1.96.66-2.04-.56,2.24-.84,3.76-.84,4.56ZM250.07,188.84l-.18.72c0-.2.06-.44.18-.72ZM251.15,186.32c.04-.52.66-1.66,1.86-3.42-.24.44-.46.9-.66,1.38-.28.8-.68,1.48-1.2,2.04ZM253.07,189.17c-.16.14-.34.27-.54.39-.2.12-.3.22-.3.3l.06.42-.11.65s-.01-.07-.01-.11c0,.24-.1.52-.3.84l-.06.18c-.08,0-.14-.03-.18-.09-.04-.06-.16-.09-.35-.09.02-.44.18-.88.47-1.32l1.44-2.16h.12c0,.52-.08.85-.24.99ZM253.13,188.12l.06-.12.24.18-.3-.06ZM260.14,170.12l.6-.78h.18c-.2.28-.46.54-.78.78ZM262.12,161.06l-.06-.24.06-.06v.3Z"/>
      <path class="cls-1" d="M216.66,193.64c.08-.16.2-.3.36-.42l-.18-.6-.18,1.02Z"/>
      <path class="cls-1" d="M217.61,189.14l-.3,1.2.66-1.08h-.18c-.08,0-.14-.04-.18-.12Z"/>
      <path class="cls-1" d="M220.25,182c-.6,1.28-1.22,2.88-1.86,4.8.2-.28.48-.52.84-.72-.12-.24-.18-.5-.18-.78,0-.1.02-.19.04-.29l-.04.11s.03-.08.04-.12c0,0,0,0,0,.01l.14-.43c-.03.05-.04.11-.06.16.18-.61.4-1.19.66-1.72.2-.36.34-.7.42-1.02Z"/>
      <path class="cls-1" d="M244.13,203.35c.32.28.66.54,1.02.78-.16-.16-.24-.34-.24-.54-.28-.04-.54-.12-.78-.24Z"/>
      <path class="cls-1" d="M241.31,199.58c.2.48.46.96.78,1.44-.24-.56-.42-1.12-.54-1.68-.12.16-.2.24-.24.24Z"/>
      <path class="cls-1" d="M218.1,200.3c.48.8,1.12,1.58,1.92,2.34-.6-.64-1.12-1.32-1.56-2.04-.04-.08-.16-.18-.36-.3Z"/>
      <path class="cls-1" d="M283.96,188.3c.08-.48.2-.92.36-1.32-.36.56-.72,1.3-1.08,2.22.24-.44.48-.74.72-.9Z"/>
      <path class="cls-1" d="M299.2,200.84l.36-.24.24.3.42.06c.44,0,.72-.4.84-1.2.44-.32.92-.62,1.44-.9l.06-.12-1.5.9v-.06c.64-.36,1.06-.64,1.26-.84-.04,0-.44.24-1.2.72.12-.8.42-1.32.9-1.56-.2-.64-.52-1.06-.96-1.26-.16-.12-.35-.23-.57-.33-.22-.1-.43-.23-.63-.39.2.2.32.42.36.66l-.66-.12c0-.12-.06-.22-.18-.3-.56.04-.9.32-1.02.84,0-.12-.06-.18-.18-.18-1.16.24-1.96.82-2.4,1.74-.04,0-.07.02-.09.06-.02.04-.07.1-.15.18l-.54.06-.06-.06c-.04-.12-.07-.22-.09-.3-.02-.08-.07-.12-.15-.12l-.18.12-.06-.06.06.12-.24.24.18.06-.42.06c-.4,0-.68-.04-.84-.12-.16-.24-.24-.5-.24-.78l.03-.24s.09.09.21.12c-.16-.28-.26-.58-.3-.9,0-.8.38-1.62,1.14-2.46l.83-1.36-.11-.02.12-.12.18.18-.1-.02.04.02v.54c-.04.24-.28.5-.72.78-.2.12-.34.24-.42.36,0,.84.02,1.32.06,1.44-.04-.12-.06-.28-.06-.48,0,.12-.1.38-.3.78-.04.16-.1.24-.18.24s-.14-.03-.18-.09c-.04-.06-.1-.09-.18-.09-.04,0-.06.04-.06.12,0,.52.22.78.66.78.64,0,1.32-.72,2.04-2.16-.12,0-.18-.04-.18-.12s-.02-.14-.06-.18l.12-1.74h.06v-.12c.32-.08.58-.28.78-.6.68-1.28,1.52-2.61,2.52-3.99,1-1.38,1.98-2.75,2.94-4.11,3.28-4.24,5.82-9,7.62-14.28.56-1.84.9-3.52,1.02-5.04.04-.08.06-.17.06-.27s.02-.33.06-.69c-.04-.52-.07-1.05-.09-1.59-.02-.54-.27-1.41-.75-2.61-.24-.6-.66-1.2-1.26-1.8-1.4-1.36-3.08-2.04-5.04-2.04s-3.92.74-6,2.22c-1.6,1.56-3.14,3.26-4.62,5.1l-.6.42-.06.42-.66.84-2.22,1.44.72-.78-.6.6c-.68.56-1.34,1.14-1.98,1.74-1.6,1.44-3.26,2.76-4.98,3.96l-1.38,1.08c.04-.68.42-1.08,1.14-1.2.32-.08.58-.2.78-.36.8-.96,2.16-2.4,4.08-4.32l-1.56,1.62c.72-.76,1.56-1.42,2.52-1.98-.04.2-.15.39-.33.57-.18.18-.27.39-.27.63,1.12-1.04,2.14-2.22,3.06-3.54.32-.4.48-.72.48-.96-.12-.36-.28-.54-.48-.54-.44,0-.76.08-.96.24-.92.8-1.84,1.56-2.76,2.28-1.96,1.52-3.68,3.22-5.16,5.1-.2.44-.42.86-.66,1.26l.78-3.66c-.08.12-.78,2.02-2.1,5.7-.08,0-.12.04-.12.12-.08-.08-.2-.16-.36-.24.68-1.28,1.02-2.02,1.02-2.22,0-.08-.02-.14-.06-.18.04-.04.07-.11.09-.21.02-.1.11-.17.27-.21v-.42c1.16-3.04,1.75-4.67,1.77-4.89.02-.22.09-.47.21-.75-.08,0-.18.28-.3.84-.12.12-.72,1.54-1.8,4.26l-.06-.12c.72-2,1.32-3.6,1.8-4.8v-.12s-.24.44-.6,1.32l-.3.24,1.44-3.48c-.24.24-.58.82-1.02,1.74l-.12-.36c.32-.52.48-.88.48-1.08,0-.08-.04-.12-.12-.12s-.2.12-.36.36v-.24s-.08.1-.12.3c-.12-.04-.18-.1-.18-.18,0,.04.02.06.06.06.04-.04.06-.1.06-.18h-.06l.18-.3.3.06c.4-.04.6-.16.6-.36,0-.24-.1-.54-.3-.9l.66-1.26h-.06l-.66,1.2c-.24-.48-.36-.86-.36-1.14,0-.16.06-.32.18-.48-.48-.48-.95-.73-1.41-.75-.46-.02-.93-.05-1.41-.09l.42.12c.24.24.36.4.36.48,0,.12-.08.18-.24.18s-.3-.07-.42-.21c-.12-.14-.24-.21-.36-.21-.32.2-.48.4-.48.6s.05.41.15.63c.1.22.17.43.21.63-.4.48-.74,1.02-1.02,1.62l.66-1.5c-.16.36-.34.74-.54,1.14-.2.4-.38.82-.54,1.26l-1.02.12.78.36-.42,1.2c-.12.16-.3.28-.54.36-.44.16-.66.38-.66.66l.06.48c.96-1.12,1.88-2.32,2.76-3.6l.24.66-1.02,2.52c-.32-.08-.66-.3-1.02-.66-.2.16-.3.32-.3.48,0,.2.06.4.18.6s.22.4.3.6c-.08.04-.17.14-.27.3-.1.16-.19.24-.27.24l-.24-.06c.16.28.24.5.24.66,0,.12-.2.26-.6.42.2-.68.32-1.36.36-2.04-.56,1.12-1.24,2.18-2.04,3.18.16-.24.24-.48.24-.72-.24.53-.49,1.03-.73,1.52.4-1.02.61-1.98.61-2.9,0-.52-.26-.78-.78-.78-.36,0-.6.12-.72.36-.4,1.04-.88,2-1.44,2.88-.84,1.36-1.46,2.82-1.86,4.38-.04,1.28-.24,2.54-.6,3.78-.52.88-.8,1.52-.84,1.92.12.88.22,1.78.3,2.7-.08.04-.14.1-.18.18l.24.24c0,1.6-.06,2.82-.18,3.66-.32.56-.62,1.18-.9,1.86-.24.2-.36.4-.36.6l.06.18-.3.78h.12l-.36.48.18-.18v.06c-.36.56-.74,1.26-1.14,2.1l-.48.12c-.04.4-.14.77-.3,1.11-.16.34-.28.65-.36.93-.32.48-.62,1.06-.9,1.74l.24-.48-.3.72h.12c-.4.8-.6,1.48-.6,2.04l.06.18-.3.66.3-.6.06.36.06.18-.54.54c.2-.12.38-.28.54-.48.08.12.16.18.24.18s.16-.04.24-.12c.24.2.42.42.54.66.24.04.5.06.78.06v.12h.06s.04-.08.12-.12c.4,0,.68-.1.84-.3.08.08.22.14.42.18.52-.04.94-.26,1.26-.66l.24.06c.16,0,.34-.14.54-.42l.12.06c.2-.12.4-.28.6-.48-.36,1-.56,1.7-.6,2.1.64-.2,1.06-.44,1.26-.72.36-.36.96-1.12,1.8-2.28.16-.16.4-.28.72-.36.08-.12.12-.25.12-.39s.18-.29.54-.45l.06.06c.56,0,1.32-.72,2.28-2.16.88-.8,1.84-1.86,2.88-3.18,0-.16-.04-.32-.12-.48.04,0,.06-.02.06-.06.4-.2.82-.46,1.26-.78l.06-.42.42-.12c2.2-2.6,3.48-4.04,3.84-4.32l-.24-.18c.28-.28.56-.46.84-.54.48-.56.98-1.1,1.5-1.62l-.06-.12c.2-.24.46-.42.78-.54l1.38-1.2.06-.48h.24l-.3.48-.72.96,1.14-1.14v.36c-.28.2-.52.44-.72.72.76-.68,1.48-1.38,2.16-2.1l.24.12.06-.3c0,.24.02.42.06.54-.36.12-.68.28-.96.48l-1.26,2.1c.04.08.14.12.3.12-.16.2-.34.38-.54.54-.2.16-.68.84-1.44,2.04l.06.54c-.16.03-.3.09-.44.15.05-.05.09-.1.14-.15-.08-.08-.13-.17-.15-.27-.02-.1-.03-.19-.03-.27.2-.4.36-.76.48-1.08-.76,1.28-1.44,2.72-2.04,4.32.16-.2.32-.34.48-.42v-.78c.3-.45.62-.83.94-1.17-.48.93-.84,1.75-1.06,2.43-.32.96-.48,1.5-.48,1.62l.06.3c-.6,1.88-.9,3.66-.9,5.34,0,.8.08,1.2.24,1.2.04,0,.62-.66,1.74-1.98-.04.36-.06.76-.06,1.2,0,3.64,1.04,6.12,3.12,7.44,1,.64,2.14.96,3.42.96,1.12,0,2.3-.26,3.54-.78.04,0,.06-.02.06-.06-.12,0-.22.02-.3.06-.96.28-1.86.42-2.7.42-3.12,0-5.12-1.5-6-4.5h.48v.06c.32,1.44.9,2.46,1.74,3.06.32.24.55.37.69.39.14.02.28.06.42.12.14.06.23.15.27.27.96.2,1.78.3,2.46.3,1.96,0,3.92-.6,5.88-1.8.08-.08.12-.14.12-.18h.12l.96-.66c-2.84,1.56-5.18,2.34-7.02,2.34-.4,0-.76-.02-1.08-.06,0-.04.04-.06.12-.06,1.28,0,2.2-.08,2.76-.24,1.16-.32,2.72-.98,4.68-1.98.08-.04.12-.08.12-.12-.16.04-.8.36-1.92.96h-.12c-1.02.5-1.97.83-2.86,1.03.03-.02.05-.05.05-.07l-.42.06c-.52.12-1.06.18-1.62.18l-.36-.06c.16-.16.36-.24.6-.24,1.28,0,2.82-.3,4.62-.9h-.36s.02-.06.06-.06c1.52-.64,2.94-1.4,4.26-2.28.12-.08.18-.14.18-.18l-2.46,1.14c.16-.24.36-.42.6-.54.72-.24,1.08-.5,1.08-.78-.04-.04-.1-.06-.18-.06-.12,0-.32.08-.6.24.16-.12.24-.2.24-.24-.12,0-.26.08-.42.24l.24-.3v-.06ZM307.47,161.42c.28.68.42,1.52.42,2.52-.04.92-.18,1.72-.42,2.4l-.18-.12c.12-.56.22-1.4.3-2.52-.04-.8-.14-1.44-.3-1.92l.18-.36ZM307.05,162.14c.16.48.24,1.1.24,1.86-.04.72-.1,1.34-.18,1.86l-.06.12-.12-.06c.12-.52.22-1.16.3-1.92,0-.76-.06-1.38-.18-1.86ZM298.24,182.72c2.76-3.88,4.14-5.92,4.14-6.12-1.36,2.08-2.7,4.04-4.02,5.88.08-.44.2-.88.36-1.32,2.24-3.32,3.52-5.3,3.84-5.94l.42-.36-2.28,3.48c.75-.66,1.48-1.59,2.2-2.81-.15.29-.23.47-.23.53.16-.04.56-.64,1.2-1.8.24-.48.52-.9.84-1.26-1.96,3.56-4.12,6.96-6.48,10.2l-.12.24.12-.72ZM297.28,187.04c.32-.4.96-1.31,1.92-2.73s2.5-3.55,4.62-6.39c1.64-2.16,3.2-4.56,4.68-7.2-.08.84-.29,1.52-.63,2.04-.34.52-.71.96-1.11,1.32-.4.36-.74.76-1.02,1.2-1.37,2.6-2.81,4.97-4.3,7.14-1.02,1.45-2.12,2.87-3.32,4.25.08-.36.27-.76.57-1.2.3-.44.45-.78.45-1.02l-1.86,2.76v-.18ZM293.8,189.26l.9-1.32c-.28.44-.52.92-.72,1.44l-.18.36v-.48ZM279.88,166.88l-.06-.06.6-1.44.12.24-.66,1.26ZM280.84,166.16h.12l-.48.84c.08-.28.2-.56.36-.84ZM281.5,166.58l-1.26,3.48-.36-.3c.64-1.44,1.18-2.5,1.62-3.18ZM281.32,165.08l.18.12-.3.54-.12-.18.24-.48ZM280.3,163.46l.24.12-.06-.54.06-.12.84.3-.3.6-.6.06-.24-.18.06-.24ZM280.36,165.32l-.66,1.5-.12.06.78-1.56ZM279.34,171.74l.18.06-.18.36-.06-.12.06-.3ZM279.22,172.34h.06l-.12.18.06-.18ZM265.96,193.64l-.18.06c.12-.28.28-.54.48-.78l-.3.72ZM269.56,177.5c-.08-.2-.12-.36-.12-.48,0-.24.18-.44.54-.6.36-.16.56-.3.6-.42.12-.44.66-1.84,1.62-4.2l-.6,1.56c.28-.72.7-1.4,1.26-2.04,0,.24-.02.41-.06.51-.04.1-.06.19-.06.27,0,.1.03.18.09.25-.97,1.88-1.92,3.42-2.85,4.61-.16.16-.3.34-.42.54ZM270.1,182.12c.2-.32.36-.66.48-1.02.16-.68.48-1.28.96-1.8,0,.32-.48,1.26-1.44,2.82ZM273.1,177.2l-1.86,3.72.9-2.22c.6-1.12,1.16-2.26,1.68-3.42-.28.12-.49.31-.63.57-.14.26-.25.51-.33.75-.04.12-.07.22-.1.32l.22-.8s-.19.3-.45.9c-.26.6-.4.9-.42.9s-.05.04-.09.12c.52-1.72,1.22-3.38,2.1-4.98l.12.3-1.26,2.52c.08,0,.12-.02.12-.06l1.14-2.34.24.66c-.68,1.36-1.14,2.38-1.38,3.06ZM274.42,175.4c-.04-.12-.1-.18-.18-.18l.3-.6.06.42-.18.36ZM274.72,172.58l.9-1.92s-.06.02-.06.06l-.9,1.8h-.3c.36-.84.68-1.68.96-2.52.04.24.14.46.3.66l.3.12-.84,1.92-.36-.12ZM275.92,171.86l-.42,1.14-.12-.12,1.5-3.36h.12c-.4.76-.76,1.54-1.08,2.34ZM277.96,170.48l.12-.24.06.12-.18.12ZM277.84,167.12c.44-.96.7-1.56.78-1.8l.06.36c0,.28-.08.54-.24.78l.42-.18-.48.78-.54.06ZM278.8,169.1l-.18-.12.24-.6h.24l-.3.72ZM280.96,177.08l-.24.24h-.24c.32-.4.66-.76,1.02-1.08l-.54.84ZM285.52,198.56c.04-1.04.1-1.74.18-2.1.04-.04.06-.1.06-.18l.18.18c0,1.04-.14,1.74-.42,2.1ZM286.12,197.24h-.06l.06-.54v.54ZM288.52,203.83l-.36-.36h.12l.3.24-.06.12ZM292.18,193.58l-.54,2.1-.12-.54c.4-1,.62-1.52.66-1.56ZM290.62,197.51c0-.1.1-.15.3-.15l-.06.54-.3-.18s.06-.11.06-.21ZM285.52,172.28v.06l1.26-1.08c-.44.44-.92.88-1.44,1.32-.08,0-.34.24-.78.72-.12,0-.18.06-.18.18-.48.56-.82.88-1.02.96,1.44-1.76,3.04-3.42,4.8-4.98-.56.76-1.44,1.7-2.64,2.82ZM289.42,180.86h-.18l-.12.42c-.28.2-.58.38-.9.54l.06-.06-.06-.06c.52-.4,1.06-.9,1.62-1.5-.12.24-.26.46-.42.66ZM289.9,199.1l-.06.24-.06-.36.24-.06c0,.36.02.68.06.96-.12-.2-.18-.46-.18-.78ZM290.5,202.93l-.06-.06h.06v.06ZM290.5,198.74l.24-.06c0,.48,0,.84.03,1.08.02.24.07.46.15.66-.24-.32-.38-.88-.42-1.68ZM292.11,204.96c-.06,0-.12.01-.17.01h-.72c.33,0,.63,0,.89-.01ZM292.72,200.24l.06-.24c-.28.32-.46.48-.54.48s-.12-.08-.12-.24l.06-.42h-.06c-.48,0-.86.18-1.14.54-.08-.28-.12-.62-.12-1.02v-.72c.24-.12.44-.28.6-.48-.16-.04-.34-.12-.54-.24l.06-.54c.16,0,.3.02.42.06v.12c0,.6.18,1.12.54,1.56l-.12.12c.12,0,.22.05.3.15.08.1.14.15.18.15l.18-.06c.28.12.6.22.96.3l-.72.48ZM295.46,202.62l.91-.41.12.18-1.08.36.3-.18c-.07,0-.16.02-.25.05ZM294.94,202.57l1.44-.42c-.44.2-.9.38-1.38.54l-.06-.12ZM295.42,203.35l1.08-.48.12.12-1.2.36ZM298,202.45l-.78.3c.04-.12.3-.28.78-.48v.18Z"/>
      <path class="cls-1" d="M295,210.31c-1.28.08-2,.18-2.16.3.72-.04,1.44-.14,2.16-.3Z"/>
      <path class="cls-1" d="M283.12,204.52c-.04.06-.1.09-.18.09.2.52.46,1,.78,1.44-.2-.56-.36-1.12-.48-1.68-.04.04-.08.09-.12.15Z"/>
      <path class="cls-1" d="M281.2,201.37c.24,1.32.68,2.56,1.32,3.72-.48-.96-.84-2.02-1.08-3.18,0-.12-.08-.3-.24-.54Z"/>
      <path class="cls-1" d="M285.76,208.45l1.02.72c-.12-.16-.2-.34-.24-.54-.28-.04-.54-.1-.78-.18Z"/>
      <path class="cls-1" d="M281.86,199.16l.06,1.74c.08-.56.26-1.1.54-1.62-.32-.44-.48-1.04-.48-1.8,0-.84.36-2.64,1.08-5.4-.8,2.44-1.2,4.8-1.2,7.08Z"/>
      <path class="cls-1" d="M262.6,200.65l-.24.3c.12-.08.2-.18.24-.3Z"/>
      <polygon class="cls-1" points="294.86 193.18 294.96 193.2 294.88 193.16 294.86 193.18"/>
      <path class="cls-1" d="M312.03,197c-.04-.36-.14-.68-.3-.96.12.48.22.8.3.96Z"/>
      <path class="cls-1" d="M319.8,209.9c.15-.29.32-.59.51-.91.36-.64.68-1.26.96-1.86-.53,1.01-1.02,1.93-1.47,2.77Z"/>
      <path class="cls-1" d="M322.47,213.37c.12-.2.18-.44.18-.72-.12.36-.18.6-.18.72Z"/>
      <path class="cls-1" d="M315.69,216.55l1.02-.84c-.12,0-.2-.06-.24-.18l-.78,1.02Z"/>
      <path class="cls-1" d="M319.78,209.93c-.67,1.24-1.25,2.28-1.75,3.14.32-.28.68-.52,1.08-.72v-.3c0-.54.22-1.25.67-2.12Z"/>
      <path class="cls-1" d="M309.45,200.18c-.96-.8-1.46-2.32-1.5-4.56,0-1.8.22-3.58.66-5.34-.48,1.72-.72,3.36-.72,4.92,0,2.76.72,5.12,2.16,7.08-.36-.72-.56-1.42-.6-2.1Z"/>
      <path class="cls-1" d="M314.67,205.15c0,.16-.06.26-.18.3.76.24,1.56.42,2.4.54-.8-.24-1.54-.52-2.22-.84Z"/>
      <path class="cls-1" d="M325.35,200l-2.7,4.44.54-.24c0-.16.02-.3.06-.42.04-.12.06-.2.06-.24.64-.84,1.12-1.38,1.44-1.62,0-.04-.02-.1-.06-.18-.04-.08-.06-.15-.06-.21v-.21l.72-1.32Z"/>
      <path class="cls-1" d="M348.2,174.26c.2-.4.38-.84.54-1.32l-.12.18c.52-1.04.9-2.14,1.14-3.3.12-.24.18-.46.18-.66l-.06-.24c.04-.2.06-.48.06-.84l.66-1.02-.72.9c-.04-.2-.1-.3-.18-.3-.04,0-.12.08-.24.24-.2-.36-.34-.74-.42-1.14l-.36-.06-.42.06v-.18l-.24.18c-.36.04-.68.24-.96.6-.04-.12-.16-.18-.36-.18-.52.04-1.02.46-1.5,1.26l-.24-.12c-.16.08-.4.4-.72.96l-.06-.18-.36.36v-.48c.4-.96.68-1.92.84-2.88l-.9.84v-.18c-.32-.44-.48-.72-.48-.84.08.08.16.12.24.12.12,0,.18-.12.18-.36,0-1.6-.88-3.18-2.64-4.74-1.48-1.24-3.26-1.86-5.34-1.86-1.52,0-3.1.38-4.74,1.14-1.52.84-2.34,1.37-2.46,1.59-.12.22-.26.45-.42.69-1.88,1.12-2.92,1.94-3.12,2.46-.2,0-.4.04-.6.12-.84.84-1.62,1.68-2.34,2.52-.32.48-.68.94-1.08,1.38-.84.96-1.54,1.9-2.1,2.82l-.9,1.02.36.12c.04-.16.12-.3.24-.42l-.18.78c-.48.2-.9.48-1.26.84l-2.04,3.18c0,.12.1.18.3.18-1.08,1.16-2.02,2.46-2.82,3.9l-.06.78c-.2.08-.4.2-.6.36.08-.1.16-.21.24-.3l-.12-.48c.04-.24.32-.88.84-1.92-1.04,1.84-1.96,3.72-2.76,5.64l.48-.42.06-.78c.4-.64.83-1.21,1.26-1.74-.68,1.24-1.26,2.5-1.74,3.78-.6,1.76-.9,2.98-.9,3.66-.48,1.8-.72,3.3-.72,4.5,0,1.8.3,3.3.9,4.5.08.12.16.18.24.18.16,0,.32-.46.48-1.38.16-.68.32-1.22.48-1.62.2,2.2,1.1,3.94,2.7,5.22,1.28.92,2.68,1.38,4.2,1.38,2.6,0,5.56-1.18,8.88-3.54-.4.68-.84,1.38-1.32,2.1-.04.12-.06.32-.06.6-.48.08-1.28,1.2-2.4,3.36l-.96.48c.24-.08.5-.14.78-.18l-.6,1.32.06.18c0,.12-.26.58-.78,1.38-.92,2.2-1.38,3.42-1.38,3.66,0,.12.1.18.3.18s.82-.22,1.86-.66c-2.88,6.6-5.68,11.16-8.4,13.68h.12c2.6-2.28,4.78-5.06,6.54-8.34.04.12.14.26.3.42-.52.8-1.1,1.62-1.74,2.46-.56.68-.84,1.14-.84,1.38-.16.24-.36.44-.6.6-.16.2-.28.42-.36.66-2.64,3.12-5.04,4.68-7.2,4.68l-.78-.06.18.12c.8,0,1.22-.02,1.26-.06,1.76,0,3.86-1.32,6.3-3.96l-.06.18c-2.28,2.72-4.46,4.08-6.54,4.08l-.84-.06c0,.08.3.12.9.12.48,0,.94-.06,1.38-.18h.66c-.68.24-1.36.36-2.04.36-1.44,0-2.58-.52-3.42-1.56-.08-.12-.16-.18-.24-.18.4,1,1.3,1.68,2.7,2.04l-.48.06c-.52-.16-1.14-.52-1.86-1.08l-.3-.06c.12.32.36.62.72.9l-.42-.24c.08.16.28.32.6.48-.04.04-.06.1-.06.18l-.54-.42v.06l-.54-.48c0-.08.06-.18.18-.3-.08-.56-.27-.97-.57-1.23-.3-.26-.63-.55-.99-.87-.2-.72-.3-1.6-.3-2.64,0-.16-.02-.24-.06-.24v.12s-.06.24-.06.6c0,.68.1,1.36.3,2.04-.84-.64-1.26-1.4-1.26-2.28l.06-.48c-.28-.2-.58-.3-.9-.3-.24.04-.49.16-.75.36-.26.2-.48.44-.66.72-.18.28-.37.52-.57.72l.42-.42c.08.12.18.24.3.36s.21.24.27.36.09.26.09.42c0,.44-.08.66-.24.66l-.48-.24c-.08,0-.14.06-.18.18,0,1.52.4,2.6,1.2,3.24.8.64,1.38,1.06,1.74,1.26,1.12,1.4,2.66,2.32,4.62,2.76-.76-.12-1.52-.34-2.28-.66,1.32.6,2.68.9,4.08.9.76,0,1.5-.1,2.22-.3.64.16,1.26.26,1.86.3l-.36-.78c.76-.2,1.7-.74,2.82-1.62.36-.2.74-.36,1.14-.48,1.08-.24,1.8-.84,2.16-1.8-3.32,2.6-6.5,3.9-9.54,3.9h-.42c.4-.08.84-.26,1.32-.54,1.8-.32,3.7-1.28,5.7-2.88.28.16.44.54.48,1.14.8-.44,1.3-1.06,1.5-1.86.04-.2.12-.46.24-.78.2-.12.36-.26.48-.42.32-.32.58-.48.78-.48l.24.06c0-.4.05-.71.15-.93.1-.22.49-.53,1.17-.93l-2.34,3.48c1.92-1.88,3.68-3.82,5.28-5.82-.28.4-.56.86-.84,1.38,1-1.4,1.92-2.86,2.76-4.38,1.96-3.48,3.96-6.62,6-9.42,0,.56-.1.96-.3,1.2-.2.24-.45.47-.75.69-.3.22-.55.49-.75.81-1.08,2.56-2.3,5.08-3.66,7.56.52-.96,1-1.92,1.44-2.88-.64,1.36-1.48,2.66-2.52,3.9.04-.28.14-.56.3-.84.2-.44.3-.7.3-.78s-.02-.14-.06-.18c-2.56,4.6-3.84,7.04-3.84,7.32,0,.4.08.62.24.66.6,0,1.1-.26,1.5-.78,3.88-5.28,6.52-9.82,7.92-13.62.24-.88,1-2.98,2.28-6.3,1-1.56,1.64-2.72,1.92-3.48.2-1.52.44-3.04.72-4.56l.3-.42-.18-.24c.4-2.12.92-4.24,1.56-6.36l1.62-3.24c.48-.52.72-1.02.72-1.5.2-.48.42-.94.66-1.38l-.18.06.6-.9-.24.3c.2-.24.48-.76.84-1.56.44-.64.9-1.4,1.38-2.28l.54-.36c.2-.64.48-1.3.84-1.98.28-.52.52-1.06.72-1.62.56-.88,1.12-1.9,1.68-3.06l-.48.78ZM311.55,195.32c.16.12.3.28.42.48.04.44.12.88.24,1.32l-.18-.12.42,2.16c-.6-1.12-.9-2.4-.9-3.84ZM307.71,229.33h-.12l-.54-.24.06-.24c-.44-.12-.88-.32-1.32-.6l.48-.78c.36.32.74.62,1.14.9.04.16.12.33.24.51.12.18.18.29.18.33s-.04.08-.12.12ZM311.79,227.29c1.48-.48,3.12-1.74,4.92-3.78,0,.16.04.32.12.48-1.8,1.88-3.48,2.98-5.04,3.3ZM313.29,227.47c-.48.28-1,.5-1.56.66l-.12-.12c.6-.12,1.16-.3,1.68-.54ZM310.23,228.31l-.72-.06.18-.18,1.08.06s-.06.02-.06.06l-.48.12ZM310.77,228.97l.36-.24c.84-.12,1.56-.32,2.16-.6l.6-.18c-1,.56-2.04.9-3.12,1.02ZM313.95,228.01l.24.06c-.78.42-1.63.7-2.54.85.73-.14,1.5-.44,2.3-.91ZM312.87,230.23c.68-.48,1.4-.92,2.16-1.32l-.9.12c.6-.24,1.18-.56,1.74-.96h.78c-1.04.92-2.3,1.64-3.78,2.16ZM316.77,226.09h-.3l1.08-1.08.18.18-.96.9ZM319.23,220.51l-.24.42-.18-.06.42-.54v.18ZM319.41,223.27v-.12l.3-.24-.3.36ZM322.17,181.4c-.44.76-.86,1.54-1.26,2.34-.44,1.04-.98,2-1.62,2.88.24-1.04,1.2-2.78,2.88-5.22ZM320.37,192.86c-.2-.12-.32-.32-.36-.6,0,.44.12.86.36,1.26-.08.08-.24.12-.48.12-.04-.04-.1-.06-.18-.06s-.18.04-.29.12c-.16-.25-.25-.58-.25-1.02.12-.84.5-1.6,1.14-2.28l.72-1.38.06.54c0,.4-.14.72-.42.96-.36.04-.58.14-.66.3,0,1.2.12,1.88.36,2.04ZM320.25,183.74c-1.2,2.48-1.8,3.86-1.8,4.14l-.9,2.1c-.4,1-.66,2.04-.78,3.12.2-.24.34-.48.42-.72v.18s.1-.12.18-.36c.44-1.84.78-2.88,1.02-3.12-.56,2.08-.84,3.48-.84,4.2,0,1.68.64,2.52,1.92,2.52.4,0,.8-.06,1.2-.18-.4.48-.6.86-.6,1.14v.12c-.92.24-1.41.36-1.47.36s-.19.02-.39.06c-.44,0-.76-.06-.96-.18.04,0,.1-.05.18-.15.08-.1.14-.15.18-.15.24.08.46.12.66.12.72-.04,1.08-.1,1.08-.18l-.84.12c-.36,0-.66-.04-.9-.12.32-.4.48-.78.48-1.14v-.12l-.48.06c-.24,0-.48-.04-.72-.12,0-.4.1-1.22.3-2.46-.24.44-.36,1.26-.36,2.46-.2-.08-.36-.2-.48-.36.08-3.16,1.38-6.94,3.9-11.34ZM322.11,196.46l.12.12-1.74.54,1.62-.66ZM320.85,195.56c.24,0,.62-.18,1.14-.54-.24.52-.46.78-.66.78-.12,0-.28-.08-.48-.24ZM322.35,197.9l-.06.12-.42.06.48-.18ZM321.21,200.41l-.84.24s.07-.07.09-.09c.02-.02.25-.11.69-.27l.06.12ZM319.89,197.42s-.14.02-.3.06c-.16.04-.41.1-.75.18-.34.08-.61.12-.81.12-.52,0-.92-.1-1.2-.3l.18-.06c.32.16.7.24,1.14.24.48-.04.96-.12,1.44-.24h.3ZM316.05,194.72v.12l-.06-.12h.06ZM325.23,199.58c-2.36,1.4-4.64,2.2-6.84,2.4l-.72.06c-.76,0-1.52-.14-2.28-.42l.6-.3c.56.2,1.24.3,2.04.3.92,0,1.76-.1,2.52-.3,1-.2,1.76-.52,2.28-.96.36-.16.62-.24.78-.24l.72-.48c1.04-.52,2.04-1.08,3-1.68.04.04.1.06.18.06-.44.48-1.2,1-2.28,1.56ZM328.77,194.42h-.18l.78-.54h.12l-.72.54ZM329.61,193.94h.06l.06-.12v.18c-.2.16-.42.3-.66.42l-.18.06.72-.54ZM327.75,193.58l.72-.12-1.32.78-.24.06c-.24,0-.44-.04-.6-.12,1-.6,1.94-1.3,2.82-2.1-.28.64-.74,1.14-1.38,1.5ZM327.93,196.64c-.08.12-.16.25-.24.39-.08.14-.94.69-2.58,1.65l.12-.36-.06-.18,2.76-1.5ZM327.45,197.42l-.12.24c-.76.48-1.54.92-2.34,1.32l.06-.12,2.4-1.44ZM324.81,196.94l-.12-.18,1.14-.66.3.06-1.32.78ZM326.43,214.33c.08-.12.16-.26.24-.42v.12c0,.08.02.14.06.18l-.6,1.08c.12-.52.22-.84.3-.96ZM322.89,211.87l.12.6-.48,1.08s-.06-.1-.06-.18c-.24.44-.58.84-1.02,1.2l1.44-2.7ZM320.25,224.47l-.12-.06c1.36-1.48,2.74-3.5,4.14-6.06l.12.12c-1.2,2.08-2.58,4.08-4.14,6ZM322.65,223.39c.08-.24.12-.46.12-.66l-.06-.36c-.04-.12-.12-.18-.24-.18.64-.96,1.36-2.12,2.16-3.48l.36.18c-.68,1.12-1.4,2.22-2.16,3.3l-.12.18c.24-.12,1.02-1.28,2.34-3.48l.36-.06c-.84,1.52-1.76,3.04-2.76,4.56ZM325.95,217.93l.06-.6c1.64-2.92,2.46-4.46,2.46-4.62l-2.46,4.5.06-1.08c2.8-5.36,5-9.42,6.6-12.18-.68,1.32-1.76,3.32-3.24,6l-2.16,4.02c.55-.49,1.06-1.2,1.51-2.11-.09.23-.13.39-.13.49.04,0,.12-.14.24-.42.84-1.72,1.36-2.7,1.56-2.94-1.24,2.88-2.74,5.86-4.5,8.94ZM333.63,203.35c-.52,1.24-1.2,2.38-2.04,3.42.04-.28,1.02-2.02,2.94-5.22l-.9,1.8ZM337.71,177.38c-1.16,1.96-1.96,3.34-2.4,4.14-.16.4-.38.84-.66,1.32,0,.24.04.48.12.72l-.48.54c-.04-.08-.12-.12-.24-.12-.56.32-.93.64-1.11.96-.18.32-.3.64-.36.96s-.15.64-.27.96c-.88.72-1.78,1.52-2.7,2.4.68-.68,1.38-1.42,2.1-2.22-1.08,1.2-2.2,2.34-3.36,3.42h-1.26l.6.6c-1.16,1-2.06,1.5-2.7,1.5-1,.2-1.58.52-1.74.96l.36-.12c.4-.2.68-.3.84-.3.8-.36,1.61-.73,2.43-1.11.82-.38,1.81-1.03,2.97-1.95l-.3.96c-1.12,1.12-2.36,2.1-3.72,2.94-.28-.24-.42-.64-.42-1.2-.76.28-1.22.7-1.38,1.26l-.42.78c-.28.04-.6.16-.96.36-.28,0-.46-.06-.54-.18.52-.32.96-.7,1.32-1.14-.84.4-1.52.6-2.04.6-.28,0-.54-.04-.78-.12.2,0,.38-.06.54-.18-.24.04-.54.06-.9.06-.37-.04-.64-.2-.82-.46.2.23.47.34.82.34.56,0,1.08-.28,1.56-.84.24-.2.36-.5.36-.9,0-.52-.12-.86-.36-1.02v-.12s.06-.02.06-.06.02-.06.06-.06l-.48-.3c.52-2.6,1.06-4.38,1.62-5.34.84-1.36,1.36-2.32,1.56-2.88.28-1.4.68-2.84,1.2-4.32l.3-.3c0-.16-.04-.26-.12-.3.72-2.04,1.72-3.98,3-5.82.76-.76,1.66-1.6,2.7-2.52.56-.2.94-.48,1.14-.84l1.08-.78h-.18l.84-.36-.3.06,1.2-.42.24.06c.12.4.18.78.18,1.14.32,0,.54.2.66.6.08.64.14,1.4.18,2.28v-.78l.06,1.2.06-.18c0,2.28.1,3.56.3,3.84l.12.72-.42,1.02c.2-.28.38-.58.54-.9.08.16.14.24.18.24.08,0,.16-.1.24-.3l.36.42-.48,1.08ZM343.1,182.36l.66-1.32.18-.06c-.24.48-.52.94-.84,1.38Z"/>
      <path class="cls-1" d="M310.47,221.47c.28-.04.42-.14.42-.3l-.42.3Z"/>
      <polygon class="cls-1" points="314.25 218.17 313.65 218.71 314.13 218.71 314.25 218.17"/>
      <path class="cls-1" d="M352.04,182.78l2.64-6.24c-2.8,6.32-4.82,11.56-6.06,15.72.44-1.12.98-2.18,1.62-3.18,0-1.36.6-3.46,1.8-6.3Z"/>
      <path class="cls-1" d="M359.84,165.74c-1.2,2.36-2.34,4.66-3.42,6.9l.6-.48c0-.24.02-.43.06-.57.04-.14.06-.25.06-.33.6-.96,1.2-1.82,1.8-2.58l-.06-.54c0-.16.02-.3.06-.42.36-.64.66-1.3.9-1.98Z"/>
      <path class="cls-1" d="M347.78,201.2v-.36c0-.68.06-1.4.18-2.16l-.36.36c0,.8.06,1.52.18,2.16Z"/>
      <path class="cls-1" d="M349.16,204.37c.24.4.62.82,1.14,1.26-.2-.24-.32-.5-.36-.78-.32-.12-.58-.28-.78-.48Z"/>
      <path class="cls-1" d="M380,146.31c.56-.64.9-1.3,1.02-1.98l1.08-1.86-.24.18.96-1.38-.36.42,3.42-5.22.72-.48c.44-.96,1-1.92,1.68-2.88.4-.6.76-1.2,1.08-1.8.88-1.12,1.84-2.38,2.88-3.78l-.78.96c.04-.12.4-.64,1.08-1.56l-.24.18c1.92-2.52,3.1-4.34,3.54-5.46.4-.28.76-.48,1.08-.6-.32.08-.66.22-1.02.42l.06-.18c0-.08-.06-.12-.18-.12l-.24.06c0-.44.08-.86.24-1.26l-.66-.36.06-.18-.36.06-.42-.06c-.28.04-.56.18-.84.42,0-.28-.06-.44-.18-.48-.68,0-1.46.42-2.34,1.26l-.12-.24c-.36.12-.8.52-1.32,1.2v-.3c-.4.28-.86.68-1.38,1.2.4-.56,1.74-2.28,4.02-5.16-2.2,1.16-4.12,3.02-5.76,5.58-.48.96-1.16,1.74-2.04,2.34l-.24.3c-.08.52-.42,1.06-1.02,1.62-.68,0-2.08,1.84-4.2,5.52-1.28,1.92-2.54,3.88-3.78,5.88-.32.64-.68,1.28-1.08,1.92-.04.12-.06.44-.06.96-.64.72-1.28,1.54-1.92,2.46,0,.08-.03.19-.09.33-.06.14-.11.33-.15.57-.2.12-.38.26-.54.42l-2.04,3.72c-.36.8-.78,1.64-1.26,2.52-.68,1.16-1.26,2.26-1.74,3.3l-.9,1.5.42.06.18-.6c-.08.36-.12.7-.12,1.02-.52.36-.98.8-1.38,1.32l-2.22,4.26c0,.08.1.12.3.12l-1.26,1.8-1.92,3.42-.12.96c-.68.24-2,2.72-3.96,7.44,0,.24-.32,1.04-.96,2.4-2.12,5.56-3.18,8.62-3.18,9.18,0,.08.06.12.18.12.16-.08,1.16-1.32,3-3.72-1.04,3.24-1.8,5.66-2.28,7.26-.8,2.76-1.2,4.94-1.2,6.54,0,1.76.44,3.12,1.32,4.08.52.52,1.18.78,1.98.78,2.32,0,5.04-1.26,8.16-3.78-3.12,2.28-5.7,3.42-7.74,3.42s-3.02-1.36-3.06-4.08c0-1.48.28-3.24.84-5.28.08.12.2.18.36.18-.56,1.72-.88,3.38-.96,4.98,0,1.44.16,2.16.48,2.16.12.4.36.86.72,1.38.32.2.86.3,1.62.3,2.68,0,5.9-1.68,9.66-5.04,2.04-1.8,3.06-2.8,3.06-3,.12-.08.4-.36.84-.84.6-.64.9-1,.9-1.08-5.96,6.08-10.58,9.3-13.86,9.66.2-.12.44-.2.72-.24,1.8-.48,3.7-1.46,5.7-2.94,1.8-1.36,4-3.34,6.6-5.94l.18-.18-.3.18c-1.01,1.01-2.03,1.97-3.06,2.91l-.66.33.24-.18c2.48-2.16,4.78-4.48,6.9-6.96l.3-.48-.48.42c-1.08,1.16-2.22,2.3-3.42,3.42l.36-.54c1.52-1.52,2.28-2.42,2.28-2.7-.28.12-.68.44-1.2.96l.42-.54c-.08.04-.32.28-.72.72-.04-.08-.1-.12-.18-.12l.24-.3v.12l.96-1.08.3.12c1.28-.44,1.94-1.36,1.98-2.76,1.28-1.56,2.02-2.54,2.22-2.94v-.06l-.18.24c-.64.88-1.3,1.72-1.98,2.52.12-1.16.58-2.26,1.38-3.3-.24-.56-.62-.84-1.14-.84l-.3.06s.06-.04.06-.12c0,.08-.22.17-.66.27-.44.1-.82.15-1.14.15l.48.06v.3c.04.12.06.28.06.48-.04.28-.26.48-.66.6-.16,0-.25-.11-.27-.33-.02-.22-.07-.33-.15-.33l-.18.06c-.88.6-1.42,1.38-1.62,2.34-.08.36-.22.72-.42,1.08-.6.48-1.1.94-1.5,1.38l.96-1.09c-.65.72-1.81,1.84-3.47,3.37h-.18c-.04-.12-.07-.27-.09-.45-.02-.18-.07-.27-.15-.27-.16,0-.5.36-1.02,1.08l.66-.06.18,1.02c.04-.12.12-.23.24-.33.12-.1.2-.23.24-.39-.2-.08-.36-.2-.48-.36.48-.08,1.04-.28,1.68-.6-.32.6-.49.99-.51,1.17-.02.18-.05.37-.09.57-1,1-2.02,1.92-3.06,2.76,0-.24.22-.94.66-2.1-.24,0-.48.2-.72.6-.4.6-.82,1.16-1.26,1.68l-.12-.06-.42.06c-.08,0-.12-.02-.12-.06,0-.16.08-.38.24-.66-.56.56-.94.84-1.14.84-.08,0-.12-.06-.12-.18,0-.24.22-.74.66-1.5-.08-.12-.2-.18-.36-.18-.2,0-.44.12-.72.36l1.08-3.12.06-.06c.24-.12.46-.28.66-.48-.16.56-.26,1.08-.3,1.56,0,.96.24,1.44.72,1.44.44,0,1.08-.38,1.92-1.14-.24.12-.56.18-.96.18-.2,0-.34-.12-.42-.36,0-.96.34-2.04,1.02-3.24-.08.12-.12.34-.12.66.68-2.64,1.44-4.4,2.28-5.28.68-1.4,1.82-3.52,3.42-6.36,0,.72-.13,1.3-.39,1.74-.26.44-.57.84-.93,1.2s-.66.78-.9,1.26c-.4,1.12-.67,1.87-.81,2.25-.14.38-.25.68-.33.9-.08.22-.22.67-.42,1.35l.24-1.02c-.16.48-.48,1.08-.96,1.8,0,.04-.06.06-.18.06,0-.24-.02-.36-.06-.36h-.18c-.2.56-.3,1.06-.3,1.5,0,.32.18.48.54.48s.9-.54,1.62-1.62l1.08-1.56v-.06c0-.08.05-.18.15-.3.1-.12.16-.2.18-.24.02-.04.04-.07.06-.09.02-.02.05-.03.09-.03l-.06-.12c.08-.12.44-1.06,1.08-2.82.84-3.08,1.88-6.14,3.12-9.18,1.24-2.28,2.06-3.92,2.46-4.92.44-2,.96-4.02,1.56-6.06.12-.16.22-.36.3-.6l-.06-.36c.84-2.84,1.88-5.76,3.12-8.76.92-1.48,1.84-3.04,2.76-4.68ZM384.49,137.25l.24-.12c-.4.64-.82,1.26-1.26,1.86l1.02-1.74ZM352.7,198.68l-.18.3v-.84c0-.44.06-1.06.18-1.86l-.12,1.32c.04.12.08.48.12,1.08ZM357.74,189.86h.24c-1.12,2.8-1.68,4.86-1.68,6.18,0,.56.14.9.42,1.02-.08.16-.14.24-.18.24-.24-.16-.36-.5-.36-1.02,0-1,.52-3.14,1.56-6.42ZM354.56,198.74v-.42l.12.36-.12.06ZM355.64,184.7l-.18.54s-.06-.12-.06-.24c-.2.48-.64,1.36-1.32,2.64.44-1.32.92-2.64,1.44-3.96l.06.36c-.12.48-.18.8-.18.96.12-.32.2-.64.24-.96v.66ZM363.26,196.04l1.8-1.56h.12c-.64.56-1.28,1.08-1.92,1.56ZM362.66,195.8c.2-.24.44-.44.72-.6l-.72.6ZM365.6,193.34l-2.04,1.74-.6.3c.96-.8,1.9-1.64,2.82-2.52l-.18.48ZM368.12,189.32l.24.06c.44-.76.7-1.18.78-1.26l.84.36-1.2,1.32c-.16,0-.33.04-.51.12-.18.08-.31.12-.39.12-.16,0-.24-.08-.24-.24l.48-.48ZM366.38,193.28l1.08-1.02v.24l-1.2,1.08.12-.3ZM365.78,192.74c-.08.24-1.02,1.1-2.82,2.58l-.18.12-.12-.06c1.04-.8,2.08-1.68,3.12-2.64ZM363.86,192.38c-.36.68-.84,1.2-1.44,1.56h.6c-.32.32-.76.68-1.32,1.08-.24-.12-.38-.26-.42-.42.24-.16,1.1-.9,2.58-2.22ZM363.26,196.76l1.74-1.23c-.83.75-1.67,1.49-2.52,2.19-2.4,1.92-4.64,3.14-6.72,3.66.28-.2.52-.4.72-.6,2.04-.64,4.3-1.98,6.78-4.02ZM359.36,197.72l.12.18c-.6.4-1.24.76-1.92,1.08l.24-.36c.56-.28,1.08-.58,1.56-.9ZM357.74,192.86c-.44.28-.66.94-.66,1.98,0,.32.08.58.24.78l-.06.3h-.06c-.12-.28-.18-.58-.18-.9,0-.92.03-1.43.09-1.53.06-.1.09-.17.09-.21.24-.92.62-2.08,1.14-3.48l.54-.18c-.44,1.12-.82,2.2-1.14,3.24ZM359.9,184.46l-.06.3.12.12-.66,1.68c.04-.68.24-1.38.6-2.1ZM359.72,188.84l-.3-.48,2.52-5.94h-.06s-.86,1.94-2.46,5.82c-.12-.32-.18-.58-.18-.78,2.16-5.6,4.86-11.6,8.1-18-3.4,7.28-5.54,12-6.42,14.16.44-.44.92-1.32,1.44-2.64l-.3.9c.08-.04.2-.24.36-.6,1.08-2.64,1.74-4.12,1.98-4.44-2.88,7.16-4.44,11.16-4.68,12ZM368.3,168.86c-.68,1.64-1.48,3.18-2.4,4.62.2-.92,1.46-3.44,3.78-7.56-.48.92-.94,1.9-1.38,2.94Z"/>
      <path class="cls-1" d="M358.04,206.65c.92-.28,1.92-.72,3-1.32-.84.4-1.68.72-2.52.96-.08,0-.24.12-.48.36Z"/>
      <path class="cls-1" d="M380.24,187.34l-.36,1.08c.44-.96.9-1.66,1.38-2.1v-.12c0-.9.37-2.16,1.1-3.78-.71,1.49-1.41,3.12-2.12,4.92Z"/>
      <path class="cls-1" d="M384.85,186.56c.16-.36.24-.7.24-1.02-.16.48-.24.82-.24,1.02Z"/>
      <path class="cls-1" d="M400.15,203.29c-2.08.96-3.22,1.54-3.42,1.74,1.16-.52,2.3-1.1,3.42-1.74Z"/>
      <path class="cls-1" d="M387.61,173.9c.04-.24.1-.43.18-.57.08-.14.12-.25.12-.33.76-.88,1.52-1.66,2.28-2.34,0-.04,0-.11.03-.21.02-.1.04-.22.06-.36.02-.14.07-.27.15-.39l1.44-1.74c-1.84,2.08-3.48,4.18-4.92,6.3l.66-.36Z"/>
      <path class="cls-1" d="M410.83,160.11c-1.16-.6-2.46-.92-3.9-.96-1.52,0-3.2.38-5.04,1.14.12.04.26.14.42.3.2-.2.48-.36.84-.48-.52.28-.92.58-1.2.9-.76.08-1.52.3-2.28.66-1.64,1.08-3.08,2.24-4.32,3.48.16.12.26.18.3.18l-1.92,1.38-2.82,3.06c-.16.28-.26.58-.3.9-.24.04-.48.16-.72.36-1.52,1.76-3.02,3.96-4.5,6.6,0,.2-.4.98-1.2,2.34-1.44,3.16-2.16,5.04-2.16,5.64,0,.2.04.3.12.3.16-.04.35-.14.57-.3.22-.16.48-.36.78-.6.3-.24.61-.48.93-.72-1.8,4.56-2.7,8.18-2.7,10.86s.72,4.72,2.16,6.12c1.28,1,2.66,1.5,4.14,1.5,2.48,0,5.12-.94,7.92-2.82-3.24,1.6-5.74,2.4-7.5,2.4-2.48,0-4.22-1-5.22-3-.52-1.12-.78-2.34-.78-3.66,0-1,.06-1.88.18-2.64.12.16.26.3.42.42-.16.64-.24,1.5-.24,2.58,0,1.24.2,2.28.6,3.12.44,1,.97,1.64,1.59,1.92.62.28,1.21.56,1.77.84l1.8.06c2.48,0,5.58-1.16,9.3-3.48,2.28-1.48,3.42-2.3,3.42-2.46.2-.12.8-.7,1.8-1.74-4.72,4.32-9.3,6.78-13.74,7.38l.3-.18c1.36-.16,2.86-.66,4.5-1.5,3.08-1.48,5.78-3.22,8.1-5.22l.18-.24-.12.06c-1.24,1.24-2.52,2.12-3.84,2.64,1.36-.8,2.62-1.74,3.78-2.82,2.08-1.88,3.28-3.14,3.6-3.78l-.42.36c-1.12,1.12-2.26,2.18-3.42,3.18l.36-.54c1.48-1.32,2.22-2.14,2.22-2.46-.36.16-.74.44-1.14.84l.42-.42c-.08,0-.14.02-.18.06-.04.04-.11.1-.21.18-.1.08-.21.2-.33.36-.08-.08-.16-.12-.24-.12l.27-.21.03.03s.11-.1.21-.18c.1-.08.15-.16.15-.24l.54-.6.36.18c1-.36,1.66-1.24,1.98-2.64l2.58-2.64c-.08,0-.92.82-2.52,2.46.32-1.36.92-2.4,1.8-3.12-.08-.72-.48-1.08-1.2-1.08h-.12l.24-.12c3.4-1.68,6.08-3.76,8.04-6.24.16-.32.3-.78.42-1.38.96-1.12,1.64-2.54,2.04-4.26,0-.56-.06-1.04-.18-1.44.16-.32.24-.66.24-1.02-.48-4.08-2.8-7.24-6.96-9.48ZM406.87,167.66h.06l-.06.06v-.06ZM401.17,170.9c-.92.88-1.77,1.85-2.55,2.91-.78,1.06-1.63,2.03-2.55,2.91,1.04-1.76,2.74-3.7,5.1-5.82ZM398.23,173.36c-1.88,2.32-3.72,4.94-5.52,7.86l-.24.12c1.72-2.88,3.64-5.54,5.76-7.98ZM393.37,180.86l.9-1.32-.66,1.26-.24.06ZM393.55,180.86l-.24.12s.08-.08.24-.12ZM391.87,187.46l.72-.06-.12.24-.84.24.24-.42ZM390.31,187.1c-.04.2-.22.64-.54,1.32l-.3.12.66-1.38.18-.06ZM390.01,187.16l-.6,1.38-.6.18.66-1.56h.54ZM389.41,189.32l-.72,2.04v-.72c.12-.44.28-.88.48-1.32h.24ZM388.93,187.16h.24l-.42.96c.04-.48.1-.8.18-.96ZM388.63,189.26l.42.06-.42,1.14v-1.2ZM383.59,197.42l.24.84c-.12-.28-.2-.56-.24-.84ZM384.55,199.76c-.2-.28-.38-.58-.54-.9l.18.12.48.66-.12.12ZM384.91,186.86c-.04-.08-.06-.18-.06-.3-.44,1.04-.8,1.7-1.08,1.98.48-1.48,1.04-2.86,1.68-4.14l.06.48c0,.16-.2.82-.6,1.98ZM387.37,199.46l-.36-.24c.16.08.34.14.54.18l-.18.06ZM387.25,197.57c-.4-.46-.6-1.11-.6-1.95.08-1.52.24-2.58.48-3.18l.12.06c-.32,1.28-.48,2.38-.48,3.3,0,.56.14,1.08.42,1.56.28.48.6.72.96.72l.54.24c-.56-.04-1.04-.29-1.44-.75ZM388.81,197.72c-.2,0-.32,0-.36-.03-.04-.02-.08-.05-.12-.09-.68-.44-1.06-.94-1.14-1.5-.04,0-.06-.14-.06-.42,0-.64.14-1.64.42-3l.42.06c-.36,1.16-.54,2.22-.54,3.18-.08.04-.14.14-.18.3.24.8.76,1.28,1.56,1.44v.06ZM389.23,196.82c-.28,0-.42-.28-.42-.84l-.84-.3c-.16,0-.3.04-.42.12,0-.88.16-1.9.48-3.06.16-.08.3-.18.42-.3-.08.36-.12.72-.12,1.08,0,1.6.58,2.4,1.74,2.4.68,0,1.28-.18,1.8-.54-.24.04-.5.06-.78.06-.4,0-.75-.14-1.05-.42-.3-.28-.45-.62-.45-1.02,0-.28.05-.56.12-.84l.12.48c0-1,.12-1.8.36-2.4.12-.24.22-.54.3-.9l.6-1.32.84-.18c-.07.18-.14.34-.2.5-.48,1.18-.9,2.08-1.24,2.68-.08-.08-.12-.21-.12-.39s-.06-.31-.18-.39c-.12.4-.18.78-.18,1.14,0,.88.34,1.32,1.02,1.32.36,0,.84-.56,1.44-1.68l-.12-.12c0-.12.04-.21.12-.27.08-.06.12-.11.12-.15l1.38-3.06c.12,0,.5-.14,1.14-.42.84-.44,1.82-.66,2.94-.66.28-.08.5-.21.66-.39.16-.18.58-.29,1.26-.33l.18-.12c.08.08.2.12.36.12.52,0,1.42-.24,2.7-.72-.4.52-.68,1.04-.84,1.56-.08.36-.22.72-.42,1.08l-3.36,2.94c.61-.53,1.21-1.11,1.81-1.72-1.39,1.4-2.56,2.36-3.49,2.86h-1.5l.42.72c-1.4.88-2.16,1.32-2.28,1.32l-.54-.18c-.04-.08-.14-.12-.3-.12-.24,0-.48.2-.72.6.76,0,1.8-.26,3.12-.78,1.68-.76,2.88-1.4,3.6-1.92l-.6,1.08c-1.32.96-2.9,1.9-4.74,2.82-.24.16-.5.28-.78.36-.16-.16-.24-.4-.24-.72l.06-.48c-.16,0-.32.04-.48.12-.24,0-.42.15-.54.45-.12.3-.32.59-.6.87l-.6.06c-.16,0-.24-.08-.24-.24l.06-.24c-.36.32-.62.48-.78.48ZM396.01,195.98c-.68.36-1.38.68-2.1.96h-.27c-.14,0-.31-.04-.51-.12,1.28-.64,2.66-1.4,4.14-2.28-.44.6-1.18,1.14-2.22,1.62l.96-.18ZM392.59,198.86v.06l-.96.36.96-.42ZM390.73,199.46l.06-.24c.44-.12.9-.28,1.38-.48l.3.12c-.56.24-1.14.44-1.74.6ZM399.19,197c-4.04,2.56-7.16,4.02-9.36,4.38.24-.16.42-.34.54-.54,2-.44,4.94-1.72,8.82-3.84ZM396.25,197.24c.04-.08.1-.12.18-.12l-.18.12ZM397.03,197.48l1.92-1.26.18.06-2.1,1.2ZM399.55,195.32c-1.56.96-2.62,1.56-3.18,1.8l-.06-.06c1.56-.88,2.72-1.62,3.48-2.22l-.24.48ZM396.13,197.06l-.24-.06c1.64-.84,2.94-1.6,3.9-2.28-.44.44-1.66,1.22-3.66,2.34ZM400.21,195.56l.18-.3,1.14-.9c0,.2-.44.6-1.32,1.2ZM402.85,192.08l-.9.12c-.12,0-.18-.06-.18-.18l.42-.48.24.12c.4-.68.63-1.04.69-1.08.06-.04.09-.1.09-.18l.84.42-1.2,1.26ZM405.07,185.6l-.24.06c-.12,0-.18-.12-.18-.36l1.02-.54c0,.36-.2.64-.6.84ZM404.17,177.5h-.24c.56-.36,1.16-.68,1.8-.96l-1.56.96ZM409.57,171.86c-.36.28-.62.68-.78,1.2-.28.36-.62.74-1.02,1.14l.18-.06-1.02.78.36-.18c-.36.24-.75.52-1.17.84s-1.55.94-3.39,1.86h-.84c-.88.56-1.88,1.06-3,1.5l-.72.3c.92-1.64,2.02-3.18,3.3-4.62.84-.84,1.44-1.52,1.8-2.04.92-1.56,1.82-2.78,2.7-3.66l.42-.12v-.3c.36-.32.54-.52.54-.6v-.12c.2,0,.42.05.66.15.24.1.44.19.6.27,1.12.6,1.68,1.38,1.68,2.34,0,.4-.1.84-.3,1.32Z"/>
      <path class="cls-1" d="M382.35,182.42c.44-.92.88-1.79,1.31-2.6-.52.95-.96,1.81-1.31,2.6Z"/>
      <path class="cls-1" d="M378.86,196.46s-.08.08-.12.12c-.04.04-.08.06-.12.06l-.12-.06c.04,1.16.2,2.26.48,3.3-.12-.76-.18-1.56-.18-2.4l.06-1.02Z"/>
      <path class="cls-1" d="M383.53,205.33c-.48-.12-.94-.3-1.38-.54.64.52,1.32.94,2.04,1.26-.32-.24-.54-.48-.66-.72Z"/>
      <path class="cls-1" d="M90.34,20.33h0C90.34,9.15,81.28.1,70.11.1H30.24l20.03,20.23h40.06Z"/>
      <path class="cls-1" d="M80.22,65.69c5.59,0,10.11-4.53,10.11-10.11s-4.53-10.11-10.11-10.11h-29.82l-20.16,10.11,20.16,10.11h29.82Z"/>
      <path class="cls-1" d="M329.64,73.69c8.21,0,14.86-6.65,14.86-14.86v-22.14l-14.86,14.72v22.29Z"/>
      <path class="cls-1" d="M536.78,11.8V1.49l-12.76,12.64c-4.78,4.73-7.47,11.18-7.47,17.9,11.17,0,20.23-9.06,20.23-20.23Z"/>
      <path class="cls-1" d="M449.4,92.13c1,10.24,9.63,18.24,20.13,18.24v-40.06l-20.03-19.84v-.19l-.1.1-.1-.1v.19l-20.03,19.84v40.06h0c10.5,0,19.13-8,20.13-18.24Z"/>
      <path class="cls-1" d="M419.45,110.37V20.23L399.22.2v89.95c0,11.17,9.06,20.23,20.23,20.23Z"/>
      <path class="cls-1" d="M499.58,90.14V.2l-20.23,20.03v90.14h0c11.17,0,20.23-9.06,20.23-20.23Z"/>
      <path class="cls-1" d="M90.34,90.14h-40.06l-20.03,20.23h39.87c11.17,0,20.23-9.06,20.23-20.23Z"/>
      <path class="cls-1" d="M13.7,110.37h6.53V0h-6.53C6.13,0,0,6.13,0,13.7v82.98c0,7.56,6.13,13.7,13.7,13.7Z"/>
      <path class="cls-1" d="M198.28,110.37h6.53V0h-6.53c-7.56,0-13.7,6.13-13.7,13.7v82.98c0,7.56,6.13,13.7,13.7,13.7Z"/>
      <path class="cls-1" d="M274.93,96.67V13.7c0-7.56-6.13-13.7-13.7-13.7h-6.53v110.37h6.53c7.56,0,13.7-6.13,13.7-13.7Z"/>
      <path class="cls-1" d="M305.6,110.37h3.94c.91.13,1.84.2,2.79.2h39.87l-20.03-20.23h-20.03V0h-6.53c-7.56,0-13.7,6.13-13.7,13.7v82.98c0,7.56,6.13,13.7,13.7,13.7Z"/>
      <path class="cls-1" d="M362.01,20.42v89.95h6.53c7.56,0,13.7-6.13,13.7-13.7V13.7c0-7.56-6.13-13.7-13.7-13.7h-6.53v.2h-39.87l20.03,20.23h19.84Z"/>
      <path class="cls-1" d="M567.46,62.62h6.53V21.72h39.87l20.03-20.23h-59.9s0,0,0,0h-6.53c-7.56,0-13.7,6.13-13.7,13.7v33.73c0,7.56,6.13,13.7,13.7,13.7Z"/>
      <path class="cls-1" d="M620.39,49.05h-6.53v40.9h-40.06l-20.03,20.23h66.63c7.56,0,13.7-6.13,13.7-13.7v-33.73c0-7.56-6.13-13.7-13.7-13.7Z"/>
      <rect class="cls-1" x="214.73" y="47.3" width="30.05" height="20.82"/>
      <rect class="cls-1" x="583.81" y="49.06" width="20.03" height="13.56"/>
      <polygon class="cls-1" points="194.21 132.83 0 132.83 9.92 142.85 190.89 142.85 194.21 132.83"/>
      <polygon class="cls-1" points="404.31 142.85 624.17 142.85 634.08 132.83 410.72 132.83 404.31 142.85"/>
      <polygon class="cls-1" points="260.21 142.85 351.52 142.85 359.02 132.83 263.92 132.83 260.21 142.85"/>
      <path class="cls-1" d="M127.58,81.02v19.79c0,5.59,4.53,10.11,10.11,10.11s10.11-4.53,10.11-10.11v-19.79h-20.23Z"/>
      <path class="cls-1" d="M127.74,68.12h19.91,0c.13,0,.25-.01.38-.02h.13c10.81-.41,19.45-9.3,19.45-20.21V.75l-20.23,20.03v40.44c0,1.12-.91,2.02-2.02,2.02-2.02,0-12.98-10.55-12.98-10.55l-1.89-1.9c-1.76-1.78-2.75-4.18-2.75-6.68v-23.33L107.51.75v47.14c0,11.17,9.06,20.23,20.23,20.23Z"/>
    </g>
  </g>
</svg>