<?xml version="1.0" encoding="UTF-8"?>
<svg id="Calque_2" xmlns="http://www.w3.org/2000/svg" viewBox="0 0 306.5 248.99">
  <g id="Calque_1-2" data-name="Calque_1">
    <path d="M298.73,40.52c-3.34-1.63-7.04-1.89-10.44-.72-3.54,1.21-6.45,3.87-8.21,7.47-9.32,19.11-18.76,38.57-27.88,57.38l-2.27,4.69c-8.48,17.48-17.2,35.46-25.81,53.33-.37-3.62-.85-7.27-1.62-10.9-2.92-13.81-10.89-21.94-23.7-24.17-.55-.1-1.1-.22-1.65-.35-.68-.16-1.37-.31-2.06-.43-10.6-1.84-24.22-5.09-35.6-13.98-1.05-.82-2.04-1.17-2.89-1.27,2.75-3.26,5.4-7,8.01-11.3,1.34-2.21,2.42-4.5,3.47-6.71,1.72-3.65,3.35-7.09,5.96-9.83,3.35-3.52,4.16-8.29,4.65-12.5l.07-.58c.6-5.04,1.33-11.26-3.03-16.7-.16-1.53-.3-3.05-.45-4.58-.27-2.86-.55-5.82-.92-8.74-.97-7.7-2.81-13.76-5.81-19.08-2.96-5.26-7.42-8.36-11.74-11.35l-1.25-.87C146.8,3.2,136.82.14,125.07,0h-.1c-12.04.15-21.83,3.16-29.93,9.19-.2.15-.61.35-1.01.55l-.33.17c-5.6,2.8-9.91,7.08-12.82,12.73-4.82,9.37-5.68,19.24-6.19,29.37l-.03.63c-.01.36-.03.89-.08,1.15-2.42,1.78-2.92,4.72-3.08,5.7-1.52,8.96-.06,17.19,4.35,24.44.59.97,1.69,2.77,3.73,3.79.18.09.47.75.73,1.37,3.75,8.97,8.23,16.46,13.55,22.64-1.91.02-3.41,1.11-4.04,1.58-4.84,3.62-10.23,6.56-16.02,8.74-7.04,2.66-14.41,4.04-21.35,5.23-13.54,2.32-21.89,10.35-24.82,23.88-1.56,7.22-2.05,14.42-2.53,21.38-.05.66,0,1.24.1,1.76-6.07,1.13-11.68,4.08-16.18,8.59C3.16,188.74-.04,196.48,0,204.64c.08,16.82,13.96,30.48,30.95,30.48h.04c5.55,0,10.75-1.53,15.23-4.18-.55,3.21-.19,6.85,1.19,9.05,1.41,2.25,3.59,3.57,6.33,3.84,2.85.27,5.69.55,8.54.83,3.3.32,6.6.65,9.9.96,4.23.4,8.47.8,12.7,1.19,7.24.68,14.48,1.35,21.72,2.06.61.06,1.26.1,1.93.1,1.97,0,4.09-.39,5.79-1.92,2.28-2.07,2.57-5.11,2.58-7.53,0-7.54,0-15.08,0-22.62v-7.77s0-8.98,0-8.98c0-7.21,0-14.43,0-21.64,0-.43-.02-.84-.05-1.25,2.65.72,5.88,1.31,9.39,1.31,2.13,0,4.36-.23,6.61-.77,0,.12-.02.22-.02.34,0,6.94,0,13.88,0,20.83v15.97c0,7.62,0,15.24,0,22.86v.28c0,.85,0,1.81.18,2.86.79,4.49,3.71,6.97,8.09,6.97.42,0,.85-.02,1.29-.07,4.68-.48,9.45-.92,14.06-1.35,2.11-.2,4.23-.39,6.34-.59l33.53-3.19c2.68-.25,4.87-1.67,6.17-4,1.12-2.01,1.46-5.04,1.12-7.91,4.58,2.72,9.91,4.29,15.62,4.31h.2c.3-.02.6-.02.9-.03.77-.02,1.63-.04,2.54-.16,11.02-1.42,20.19-8.26,24.53-18.31,4.31-9.99,3.01-21.29-3.48-30.21-.18-.24-.27-.4-.32-.5.03-.08.07-.2.16-.38,6.67-13.62,13.38-27.5,19.88-40.92l16.53-34.11c8.27-17.06,16.54-34.13,24.8-51.2,3.51-7.26.83-15.34-6.24-18.79ZM87.69,85.99c-.62-1.49-1.66-3.96-4.44-5.39-.17-.18-.46-.67-.56-.83-3.42-5.64-4.5-11.84-3.3-18.95.07-.41.14-.65.19-.78,2.91-2.26,3.02-5.28,3.08-7.11l.02-.52c.46-9.23,1.22-18.16,5.31-26.11,2.14-4.16,5.18-7.18,9.29-9.23l.29-.14c.65-.32,1.47-.72,2.26-1.31,6.68-4.98,14.92-7.47,25.19-7.61,10.07.13,18.56,2.71,25.95,7.88l1.28.89c3.9,2.7,7.27,5.04,9.32,8.69,2.47,4.39,4.01,9.52,4.84,16.16.35,2.8.63,5.7.89,8.5.15,1.58.3,3.15.46,4.73v.12c.09.81.24,2.33,1.39,3.61,2.49,2.76,2.24,6.03,1.64,11.12l-.07.59c-.34,2.92-.85,6.17-2.5,7.91-3.5,3.67-5.48,7.87-7.4,11.93-1,2.12-1.95,4.12-3.08,5.98-5.56,9.17-10.94,15.18-17.43,19.5-10.31,6.86-21.48,6.58-31.45-.77-9-6.64-15.73-15.8-21.19-28.85ZM110.4,132.95c.49,1.16.93,2.33,1.4,3.57.87,2.28,1.76,4.64,2.95,6.94-.37,1.12-.74,2.25-1.11,3.39l-.72-1.55c-4.16-8.88-8.45-18.04-12.65-27.12,1.25,1.09,2.53,2.12,3.86,3.1,2.15,1.58,4.36,2.91,6.61,3.97-1.3,2.3-1.44,5.08-.34,7.7ZM122.25,140.51c-1.17-2.1-2.05-4.4-2.97-6.84-.48-1.25-.97-2.54-1.51-3.83-.15-.35-.13-.59-.08-.66.03-.04.18-.12.47-.13,4.46-.19,9.09-.19,13.75,0,.21,0,.39.06.43.13.04.06.08.28-.05.62-1.29,3.27-2.69,6.58-4.04,9.78l-.53,1.25c-.66,1.56-.75,3.08-.28,4.53,1.03,3.16,2.07,6.31,3.15,9.58l2.97,9.02c-.87.09-1.75.17-2.62.26-2.37.24-4.38,1.17-5.88,2.06-2.91-1.72-6.06-2.14-8.6-2.39l2.47-7.53c1.31-4,2.52-7.68,3.73-11.36.5-1.53.36-3.08-.42-4.48ZM139.32,125.31c1.83-.85,3.65-1.85,5.43-3.03,1.65-1.1,3.25-2.31,4.8-3.62-4.24,9.12-8.71,18.7-13.19,28.25-.37-1.13-.74-2.25-1.11-3.37l.35-.84c1.37-3.25,2.79-6.6,4.11-9.96,1-2.53.84-5.2-.4-7.43ZM30.98,227.13h-.03c-12.6,0-22.89-10.1-22.95-22.52-.03-6.02,2.34-11.73,6.68-16.08,4.35-4.36,10.09-6.76,16.16-6.76h.06c12.16.03,22.44,10.37,22.45,22.58.01,12.55-10.02,22.77-22.37,22.79ZM50.56,162.65c-3.01,2.64-5.08,6.43-5.83,10.52-3.77-1.46-7.62-2.27-11.5-2.42.42-5.95.94-12.04,2.21-17.92,2.23-10.3,8.06-15.92,18.35-17.68,7-1.2,15.12-2.72,22.82-5.63,5.77-2.18,11.19-5.03,16.15-8.5,4.28,9.26,8.66,18.6,12.9,27.66l4.25,9.07c.11.24.23.48.44.88l2.48,4.9-10.06-.95c-7.22-.68-14.44-1.35-21.65-2.04l-3.76-.35c-4.65-.44-9.45-.88-14.15-1.42-4.7-.53-9.19.84-12.64,3.87ZM108.89,216.92c0,7.54,0,15.07,0,22.61,0,.7-.04,1.16-.09,1.46-.29,0-.75,0-1.43-.06-7.25-.71-14.5-1.39-21.75-2.06-4.23-.4-8.46-.79-12.69-1.19-3.29-.31-6.58-.64-9.87-.96-2.85-.28-5.7-.56-8.56-.83-.16-.02-.24-.04-.25-.04,0,0,0,0,0,0,0,0-.02-.02-.03-.03-.45-.93-.29-3.96.22-4.79,11.26-14.33,11.3-34.41.09-48.82-.5-.64-.53-.92-.52-1.27.05-1.56.04-3.11.03-4.6,0-1.09-.01-2.19,0-3.28,0-.45.04-.76.08-.96.17,0,.42,0,.75.03,5.67.53,11.33,1.09,16.99,1.65,4.7.46,9.4.93,14.1,1.38,8.15.78,14.94,1.39,21.39,1.92.79.07,1.21.17,1.42.24.04.2.1.58.1,1.25.01,7.21,0,14.42,0,21.62v8.98s0,7.78,0,7.78ZM195.51,234.76l-33.49,3.19c-2.11.2-4.22.4-6.33.59-4.63.43-9.42.88-14.13,1.36-.27.03-.47.03-.61.03-.03-.09-.05-.21-.08-.36-.06-.36-.06-.89-.06-1.46v-.3c0-7.62,0-15.23,0-22.85v-15.97c0-6.94,0-13.88,0-20.82,0-1.13.1-1.68.16-1.92.24-.09.82-.24,2.07-.35,6.88-.6,13.86-1.28,20.61-1.95,3.06-.3,6.13-.6,9.19-.9l3.78-.36c6.32-.61,12.65-1.22,18.98-1.79.08,2.11.07,4.2.05,6.41,0,1.07-.01,2.15,0,3.22-.06.08-.12.16-.18.23l-.07.09c-5.55,7.03-8.44,15.15-8.58,24.12-.14,9.11,2.66,17.43,8.32,24.7.58.87.81,3.96.39,5.1ZM188.5,158.7c-1.49,0-2.86.13-4.04.25-5.04.49-10.08.99-15.12,1.49-5.02.5-10.05,1-15.08,1.49-3.09.3-6.18.6-9.27.9-3.08.3-6.16.59-9.23.9l3.02-4.02c1.4-1.87,2.21-3.7,2.93-5.32.19-.42.37-.84.56-1.25,5.08-10.81,10.17-21.72,14.96-32.03,12.14,8.49,25.76,11.72,36.48,13.58.55.1,1.09.22,1.64.35.69.16,1.38.32,2.07.44,9.53,1.66,15.01,7.36,17.25,17.94,1.19,5.65,1.65,11.34,2.11,17.35-3.75.08-7.56.88-11.56,2.42-.73-4.57-3.01-8.38-6.8-11.35-3.26-2.56-6.83-3.14-9.92-3.14ZM297.76,55.83c-8.25,17.07-16.52,34.13-24.79,51.19l-16.53,34.12c-6.49,13.41-13.2,27.28-19.86,40.89-1.58,3.22-1.3,6.11.87,9.1,4.81,6.62,5.78,14.97,2.6,22.34-3.2,7.43-10.01,12.49-18.2,13.54-.49.06-1.08.08-1.71.09-.33,0-.65.02-.98.03-11.81-.09-21.48-9.08-22.51-20.93-.99-11.41,6.88-21.72,18.31-24l.46-.09c.78-.16,1.58-.32,2.14-.32.08,0,.15,0,.21,0,5.73.56,7.83-3.79,8.51-5.22,10.23-21.27,20.7-42.86,30.83-63.74l2.27-4.69c9.12-18.81,18.55-38.26,27.87-57.36.82-1.68,2.11-2.9,3.62-3.42,1.39-.48,2.89-.36,4.32.34,3.13,1.53,4.16,4.8,2.55,8.13Z"/>
  </g>
</svg>